<svg width="82" height="82" viewBox="0 0 82 82" xmlns="http://www.w3.org/2000/svg"><title>054613FF-769D-4388-B816-65680209CD97</title><g fill="none" fill-rule="evenodd"><path d="M41.369 1.39c22.004 0 39.953 17.95 39.953 39.957 0 22.006-17.949 39.955-39.953 39.955-22.009 0-39.957-17.95-39.957-39.955C1.412 19.34 19.36 1.39 41.369 1.39z" fill="#C9A665"/><path d="M41.369 1.39c22.004 0 39.953 17.95 39.953 39.957 0 22.006-17.949 39.955-39.953 39.955-22.009 0-39.957-17.95-39.957-39.955C1.412 19.34 19.36 1.39 41.369 1.39z" stroke="#C9A665" stroke-width=".917"/><path d="M41.89 19.715c7.82 0 14.2 8.779 14.2 19.542 0 10.763-6.38 19.542-14.2 19.542-7.822 0-14.203-8.78-14.203-19.542 0-10.763 6.381-19.542 14.202-19.542" fill="#1A1918"/><path d="M41.369 2.117c21.606 0 39.227 17.622 39.227 39.23 0 21.605-17.621 39.23-39.227 39.23-21.61 0-39.232-17.625-39.232-39.23 0-21.608 17.623-39.23 39.232-39.23" fill="#9B1536"/><path d="M41.738 8.844c18.105 0 32.873 14.767 32.873 32.874 0 18.106-14.768 32.873-32.873 32.873-18.106 0-32.874-14.767-32.874-32.873 0-18.107 14.768-32.874 32.874-32.874z" fill="#FFF"/><path d="M41.738 8.844c18.105 0 32.873 14.767 32.873 32.874 0 18.106-14.768 32.873-32.873 32.873-18.106 0-32.874-14.767-32.874-32.873 0-18.107 14.768-32.874 32.874-32.874z" stroke="#C9A665" stroke-width=".306"/><path d="M41.53 18.633c8.111 0 14.725 9.103 14.725 20.265 0 11.16-6.614 20.265-14.725 20.265-8.11 0-14.728-9.104-14.728-20.265 0-11.162 6.617-20.265 14.728-20.265zm0 .724c7.821 0 14.198 8.778 14.198 19.541S49.351 58.441 41.53 58.441c-7.82 0-14.201-8.78-14.201-19.543s6.38-19.541 14.2-19.541z" fill="#C9A665"/><path d="M41.53 18.633c8.111 0 14.725 9.103 14.725 20.265 0 11.16-6.614 20.265-14.725 20.265-8.11 0-14.728-9.104-14.728-20.265 0-11.162 6.617-20.265 14.728-20.265zm0 .724c7.821 0 14.198 8.778 14.198 19.541S49.351 58.441 41.53 58.441c-7.82 0-14.201-8.78-14.201-19.543s6.38-19.541 14.2-19.541z" stroke="#C9A665" stroke-width=".216"/><path d="M41.53 19.176c7.892 0 14.326 8.856 14.326 19.715 0 10.858-6.434 19.715-14.326 19.715-7.888 0-14.326-8.857-14.326-19.715 0-10.859 6.438-19.715 14.326-19.715z" fill="#FFF"/><path d="M41.53 19.176c7.892 0 14.326 8.856 14.326 19.715 0 10.858-6.434 19.715-14.326 19.715-7.888 0-14.326-8.857-14.326-19.715 0-10.859 6.438-19.715 14.326-19.715z" stroke="#C9A665" stroke-width=".216"/><path d="M44.253 22.04l-1.026-.314c-.008-.006-.02.007-.03.002l1.056.313zm.091-.576l-1.004-.454 1.004.454zm.433.2c.004-.333-.153-.576-.462-.744-.568-.282-.861-.38-1.168-.555a3.475 3.475 0 0 1-.817-.617c.125.511.204.782.637 1.179-.359-.041-.401-.073-.677.127.17.32.341.471.572.575-.74.019-.758.329-.89.606.392-.077.574-.085.873-.035.387.064.746.22 1.252.358.29.094.47-.041.589-.391.017.235.132.328.225.414.288.096.41-.07.52-.392-.013-.311-.002-.564-.22-.686-.192-.107-.368.007-.434.161zm2.414 1.915l-.937-.694c-.007-.008-.019 0-.028-.009l.965.703zm.19-.522l-.887-.82.888.82zm.382.357c.063-.323-.046-.617-.313-.895-.498-.486-.766-.694-1.03-.977a4.607 4.607 0 0 1-.68-.906c.03.541.059.833.406 1.38-.338-.175-.375-.223-.677-.133.11.375.244.584.453.771-.72-.262-.791.032-.97.248.391.075.568.136.85.297.361.209.68.495 1.145.82.267.2.46.138.639-.156-.026.233.069.367.145.486.26.202.407.087.572-.182.04-.305.097-.546-.094-.747-.164-.175-.356-.131-.446-.006zm1.992 2.76l-.78-1.022c-.009-.013-.02-.009-.028-.02l.808 1.042zm.279-.432l-.717-1.127.717 1.127zm.304.49c.117-.29.066-.613-.145-.984-.396-.658-.617-.959-.822-1.333a6.07 6.07 0 0 1-.496-1.13c-.064.533-.09.826.149 1.486-.296-.299-.326-.359-.632-.387.04.404.136.659.301.917-.648-.525-.77-.268-.982-.127.367.22.527.346.772.609.312.338.566.734.96 1.223.221.295.42.308.645.092-.066.217 0 .38.051.524.218.294.379.238.586.042.094-.28.19-.491.043-.757-.128-.232-.322-.263-.43-.176zm1.435 3.418l-.572-1.282c-.006-.015-.017-.015-.023-.03l.595 1.312zm.344-.312l-.49-1.358.49 1.358zm.208.589c.164-.235.17-.568.034-1.005-.265-.785-.424-1.16-.558-1.598a7.216 7.216 0 0 1-.28-1.28c-.155.491-.232.764-.119 1.493-.233-.402-.246-.469-.54-.613-.034.405.014.687.128.998-.535-.752-.697-.548-.925-.493.316.352.447.534.635.88.244.445.421.924.711 1.544.162.37.353.457.606.333-.099.186-.065.368-.04.527.157.365.323.372.558.26.14-.234.27-.403.174-.714-.083-.273-.262-.375-.384-.332zm.78 3.846l-.324-1.458c-.004-.015-.015-.02-.018-.036l.341 1.494zm.39-.172l-.234-1.497.233 1.497zm.096.647c.2-.166.265-.484.211-.958-.117-.858-.206-1.281-.256-1.755a7.603 7.603 0 0 1-.043-1.341c-.239.414-.362.65-.378 1.396-.157-.475-.16-.548-.416-.796a2.232 2.232 0 0 0-.055 1.013c-.38-.928-.574-.794-.805-.826.242.457.34.685.459 1.09.156.52.242 1.05.412 1.76.092.417.26.574.527.55-.128.141-.128.332-.134.494.088.412.247.483.495.464.177-.175.334-.288.297-.625-.035-.295-.189-.462-.314-.466zm.071 4.008l-.057-1.529c0-.015-.009-.025-.009-.042l.066 1.571zm.407-.017l.04-1.535-.04 1.535zm-.023.661c.223-.085.345-.367.374-.846.039-.874.028-1.314.065-1.791.026-.37.056-.707.197-1.312-.305.31-.465.49-.615 1.205-.066-.517-.058-.59-.26-.925a2.03 2.03 0 0 0-.232.957c-.203-1.041-.413-.983-.63-1.102.15.533.202.788.247 1.226.06.562.05 1.106.089 1.856.015.437.148.653.41.731-.151.087-.182.271-.216.427.011.43.153.557.395.633.202-.1.373-.15.395-.49.023-.299-.099-.517-.219-.569zm-.64 3.899l.217-1.498c.002-.016-.006-.03 0-.044l-.216 1.542zm.396.136l.31-1.467-.31 1.467zm-.136.63c.227.004.395-.224.508-.675.191-.829.26-1.258.38-1.707.09-.347.178-.66.423-1.192-.35.184-.535.299-.808.932.028-.525.05-.59-.086-.991-.219.25-.324.498-.396.837-.011-1.083-.224-1.107-.412-1.305.052.574.058.84.023 1.28-.043.564-.151 1.085-.244 1.825-.066.428.029.687.267.862-.163.025-.225.193-.285.33-.065.42.048.598.271.761.21-.021.384-.006.47-.325.07-.28-.007-.537-.111-.631zm-1.312 3.524l.475-1.366c.006-.012 0-.03.006-.042l-.481 1.408zm.358.28l.56-1.3-.56 1.3zm-.245.558c.222.09.422-.068.612-.46.333-.729.475-1.116.668-1.505.152-.3.29-.569.621-.991-.37.045-.569.085-.944.595.118-.496.153-.552.09-.99-.256.16-.399.359-.526.659.18-1.051-.023-1.154-.17-1.415-.052.571-.095.83-.206 1.243-.142.528-.336.992-.557 1.67-.14.389-.097.675.105.934-.16-.034-.25.102-.334.212-.139.38-.06.594.126.837.208.06.373.14.509-.137.123-.24.091-.52.006-.652zm-1.89 2.91l.7-1.14c.01-.01.007-.03.015-.04l-.715 1.18zm.296.406l.772-1.045-.772 1.045zm-.335.446c.198.169.42.093.674-.213.45-.578.655-.901.91-1.2.2-.234.385-.442.775-.725-.364-.097-.566-.132-1.016.217.205-.433.245-.475.264-.922-.276.057-.452.195-.629.437.362-.946.185-1.122.09-1.432-.152.535-.24.77-.42 1.125-.23.459-.5.83-.836 1.403-.202.324-.211.616-.063.94-.148-.092-.261.005-.358.08-.203.316-.163.552-.03.855.191.137.337.28.518.063.16-.19.18-.47.12-.628zm-2.34 2.095l.877-.838c.011-.005.011-.024.02-.031l-.897.869zm.214.504l.93-.717-.93.717zm-.404.305c.161.237.39.248.688.048.538-.387.795-.62 1.095-.816.231-.15.445-.28.875-.405-.336-.232-.522-.343-1.022-.175.276-.342.322-.366.42-.791-.278-.048-.469.02-.685.185.516-.78.38-1.015.339-1.35-.239.46-.364.652-.6.929-.307.354-.635.612-1.059 1.039-.254.235-.313.514-.227.884-.126-.146-.255-.095-.363-.06-.25.23-.253.473-.178.817.162.204.275.396.492.255.185-.121.256-.386.225-.56zm-2.63 1.137l.996-.476c.008-.003.014-.02.026-.022l-1.022.498zm.117.568l1.024-.341-1.024.341zm-.445.143c.115.289.33.386.658.307.587-.172.873-.3 1.201-.374.25-.056.48-.103.917-.062-.285-.351-.444-.527-.957-.555.328-.225.376-.232.547-.605-.26-.151-.458-.16-.695-.08.635-.557.543-.838.566-1.176-.313.353-.469.493-.746.67-.358.227-.719.352-1.206.602-.285.133-.393.38-.376.77-.097-.19-.227-.187-.339-.194-.282.127-.33.36-.315.721.12.257.196.485.427.43.202-.045.316-.273.318-.454zm-2.742.104l1.046-.083c.012 0 .018-.015.03-.014l-1.076.097zm.011.592l1.05.057-1.05-.057zm-.453-.031c.058.324.25.501.581.547.597.056.9.04 1.226.09.251.04.482.086.897.291-.211-.447-.336-.68-.826-.9.357-.093.405-.082.635-.378-.224-.244-.415-.326-.658-.338.715-.299.674-.605.757-.923-.366.223-.54.298-.839.364-.387.085-.757.068-1.272.128-.299.02-.447.218-.5.6-.06-.22-.186-.268-.292-.316-.294.018-.383.224-.434.576.068.296.103.546.335.58.205.032.357-.147.39-.321zm-3.06-35.065l1.028-.315c.012-.006.02.007.028.002l-1.055.313zm-.09-.577l1.004-.454-1.004.454zm-.432.2c-.004-.333.153-.576.463-.744.566-.282.86-.38 1.167-.555.236-.134.452-.263.817-.617-.125.511-.205.782-.638 1.179.358-.041.404-.073.678.127-.171.32-.342.471-.572.575.74.019.757.329.893.606-.393-.077-.575-.085-.876-.035-.388.064-.743.22-1.25.358-.293.094-.472-.041-.589-.391-.02.235-.134.328-.227.414-.288.096-.41-.07-.521-.392.014-.311.002-.564.221-.686.191-.107.368.007.434.161zM35.87 23.58l.937-.694c.008-.008.02 0 .027-.009l-.964.703zm-.19-.522l.89-.82-.89.82zm-.383.357c-.062-.323.047-.617.314-.895.5-.486.765-.694 1.03-.977.208-.22.393-.425.68-.906-.031.541-.06.833-.408 1.38.34-.175.377-.223.679-.133-.11.375-.245.584-.453.771.72-.262.792.032.97.248-.393.075-.569.136-.85.297-.362.209-.68.495-1.145.82-.267.2-.46.138-.637-.156.023.233-.071.367-.145.486-.262.202-.41.087-.575-.182-.04-.305-.097-.546.094-.747.165-.175.356-.131.446-.006zm-1.991 2.76l.78-1.022c.008-.013.02-.009.028-.02l-.808 1.042zm-.28-.432l.718-1.127-.718 1.127zm-.304.49c-.117-.29-.063-.613.146-.984.396-.658.617-.959.822-1.333.16-.289.301-.559.495-1.13.069.533.09.826-.148 1.486.296-.299.324-.359.632-.387-.04.404-.134.659-.298.917.645-.525.767-.268.978-.127-.367.22-.527.346-.771.609-.314.338-.566.734-.96 1.223-.22.295-.42.308-.643.092.063.217-.002.38-.055.524-.215.294-.377.238-.585.042-.094-.28-.19-.491-.042-.757.127-.232.321-.263.43-.176zm-1.434 3.418l.572-1.282c.006-.015.02-.015.022-.03l-.594 1.312zm-.345-.312l.493-1.358-.493 1.358zm-.207.589c-.165-.235-.17-.568-.035-1.005.266-.785.425-1.16.559-1.598.102-.34.193-.654.278-1.28.16.491.234.764.12 1.493.233-.402.25-.469.54-.613.035.405-.011.687-.124.998.531-.752.694-.548.922-.493-.314.352-.447.534-.635.88-.242.445-.419.924-.712 1.544-.162.37-.353.457-.606.333.1.186.065.368.04.527-.157.365-.322.372-.558.26-.14-.234-.27-.403-.173-.714.082-.273.262-.375.384-.332zm-.78 3.846l.327-1.458c0-.015.012-.02.015-.036l-.343 1.494zm-.39-.172l.234-1.497-.234 1.497zm-.097.647c-.199-.166-.264-.484-.21-.958.119-.858.204-1.281.256-1.755a7.7 7.7 0 0 0 .043-1.341c.238.414.36.65.378 1.396.157-.475.16-.548.416-.796.101.379.107.668.053 1.013.382-.928.575-.794.806-.826a5.17 5.17 0 0 0-.458 1.09c-.154.52-.242 1.05-.412 1.76-.092.417-.26.574-.528.55.132.141.129.332.134.494-.087.412-.247.483-.494.464-.177-.175-.334-.288-.294-.625.032-.295.187-.462.31-.466zm-.07 4.008l.056-1.529c0-.015.008-.025.008-.042l-.064 1.571zm-.405-.017l-.043-1.535.043 1.535zm.02.661c-.222-.085-.342-.367-.373-.846-.04-.874-.029-1.314-.066-1.791a7.359 7.359 0 0 0-.196-1.312c.308.31.464.49.615 1.205.065-.517.058-.59.26-.925.167.326.224.603.232.957.202-1.041.413-.983.632-1.102-.153.533-.205.788-.25 1.226-.057.562-.046 1.106-.089 1.856-.01.437-.148.653-.41.731.152.087.183.271.217.427-.011.43-.154.557-.395.633-.203-.1-.374-.15-.397-.49-.022-.299.1-.517.22-.569zm.64 3.899l-.216-1.498c-.003-.016.005-.03.003-.044l.213 1.542zm-.395.136l-.31-1.467.31 1.467zm.136.63c-.227.004-.392-.224-.51-.675-.19-.829-.258-1.258-.378-1.707a6.473 6.473 0 0 0-.42-1.192c.346.184.534.299.804.932-.027-.525-.048-.59.089-.991.219.25.321.498.392.837.011-1.083.225-1.107.416-1.305-.054.574-.06.84-.025 1.28.045.564.15 1.085.244 1.825.066.428-.029.687-.267.862.162.025.225.193.285.33.064.42-.05.598-.268.761-.213-.021-.388-.006-.47-.325-.074-.28.003-.537.108-.631zm1.312 3.524l-.475-1.366c-.006-.012 0-.03-.006-.042l.48 1.408zm-.358.28l-.558-1.3.558 1.3zm.244.558c-.219.09-.42-.068-.611-.46-.334-.729-.476-1.116-.669-1.505-.151-.3-.29-.569-.62-.991.369.045.572.085.944.595-.12-.496-.151-.552-.091-.99.256.16.401.359.53.659-.18-1.051.02-1.154.167-1.415.052.571.094.83.204 1.243.144.528.34.992.559 1.67.14.389.097.675-.105.934.162-.034.254.102.333.212.139.38.06.594-.126.837-.207.06-.372.14-.51-.137-.118-.24-.09-.52-.005-.652zm1.89 2.91l-.7-1.14c-.008-.01-.006-.03-.014-.04l.714 1.18zm-.296.406l-.77-1.045.77 1.045zm.336.446c-.2.169-.419.093-.674-.213-.45-.578-.655-.901-.911-1.2a3.873 3.873 0 0 0-.774-.725c.364-.097.566-.132 1.016.217-.202-.433-.244-.475-.265-.922.279.057.452.195.63.437-.36-.946-.183-1.122-.09-1.432.152.535.24.77.42 1.125.23.459.503.83.836 1.403.202.324.21.616.063.94.146-.092.261.005.358.08.202.316.165.552.029.855-.192.137-.337.28-.518.063a.682.682 0 0 1-.12-.628zm2.34 2.095l-.877-.838c-.011-.005-.011-.024-.02-.031l.896.869zm-.214.504l-.928-.717.928.717zm.404.305c-.163.237-.39.248-.688.048-.539-.387-.795-.62-1.094-.816a2.92 2.92 0 0 0-.876-.405c.336-.232.524-.343 1.022-.175-.277-.342-.322-.366-.419-.791.276-.048.47.02.683.185-.515-.78-.375-1.015-.338-1.35.242.46.367.652.603.929.304.354.632.612 1.056 1.039.253.235.313.514.227.884.128-.146.253-.095.362-.06.25.23.256.473.179.817-.162.204-.276.396-.49.255-.187-.121-.256-.386-.227-.56zm2.632 1.137l-.996-.476c-.01-.003-.017-.02-.025-.022l1.021.498zm-.116.568l-1.028-.341 1.028.341zm.441.143c-.114.289-.33.386-.655.307-.589-.172-.876-.3-1.201-.374a2.557 2.557 0 0 0-.92-.062c.285-.351.445-.527.957-.555-.324-.225-.375-.232-.546-.605.26-.151.458-.16.694-.08-.635-.557-.543-.838-.566-1.176.313.353.47.493.746.67.358.227.72.352 1.206.602.285.133.393.38.376.77.097-.19.227-.187.339-.194.281.127.33.36.315.721-.116.257-.194.485-.427.43-.201-.045-.315-.273-.318-.454zm2.743.104l-1.046-.083c-.01 0-.018-.015-.03-.014l1.076.097zm-.011.592l-1.05.057 1.05-.057zm.453-.031c-.057.324-.251.501-.578.547-.6.056-.899.04-1.226.09-.254.04-.484.086-.9.291.214-.447.336-.68.825-.9-.352-.093-.401-.082-.63-.378.22-.244.411-.326.653-.338-.714-.299-.674-.605-.755-.923.365.223.539.298.84.364.385.085.758.068 1.27.128.298.02.447.218.501.6.06-.22.184-.268.29-.316.296.018.384.224.435.576-.068.296-.102.546-.336.58-.205.032-.352-.147-.389-.321z" fill="#C9A665"/><path d="M44.253 22.04l-1.026-.314c-.008-.006-.02.007-.03.002l1.056.313zm.091-.576l-1.004-.454 1.004.454zm.433.2c.004-.333-.153-.576-.462-.744-.568-.282-.861-.38-1.168-.555a3.475 3.475 0 0 1-.817-.617c.125.511.204.782.637 1.179-.359-.041-.401-.073-.677.127.17.32.341.471.572.575-.74.019-.758.329-.89.606.392-.077.574-.085.873-.035.387.064.746.22 1.252.358.29.094.47-.041.589-.391.017.235.132.328.225.414.288.096.41-.07.52-.392-.013-.311-.002-.564-.22-.686-.192-.107-.368.007-.434.161zm2.414 1.915l-.937-.694c-.007-.008-.019 0-.028-.009l.965.703zm.19-.522l-.887-.82.888.82zm.382.357c.063-.323-.046-.617-.313-.895-.498-.486-.766-.694-1.03-.977a4.607 4.607 0 0 1-.68-.906c.03.541.059.833.406 1.38-.338-.175-.375-.223-.677-.133.11.375.244.584.453.771-.72-.262-.791.032-.97.248.391.075.568.136.85.297.361.209.68.495 1.145.82.267.2.46.138.639-.156-.026.233.069.367.145.486.26.202.407.087.572-.182.04-.305.097-.546-.094-.747-.164-.175-.356-.131-.446-.006zm1.992 2.76l-.78-1.022c-.009-.013-.02-.009-.028-.02l.808 1.042zm.279-.432l-.717-1.127.717 1.127zm.304.49c.117-.29.066-.613-.145-.984-.396-.658-.617-.959-.822-1.333a6.07 6.07 0 0 1-.496-1.13c-.064.533-.09.826.149 1.486-.296-.299-.326-.359-.632-.387.04.404.136.659.301.917-.648-.525-.77-.268-.982-.127.367.22.527.346.772.609.312.338.566.734.96 1.223.221.295.42.308.645.092-.066.217 0 .38.051.524.218.294.379.238.586.042.094-.28.19-.491.043-.757-.128-.232-.322-.263-.43-.176zm1.435 3.418l-.572-1.282c-.006-.015-.017-.015-.023-.03l.595 1.312zm.344-.312l-.49-1.358.49 1.358zm.208.589c.164-.235.17-.568.034-1.005-.265-.785-.424-1.16-.558-1.598a7.216 7.216 0 0 1-.28-1.28c-.155.491-.232.764-.119 1.493-.233-.402-.246-.469-.54-.613-.034.405.014.687.128.998-.535-.752-.697-.548-.925-.493.316.352.447.534.635.88.244.445.421.924.711 1.544.162.37.353.457.606.333-.099.186-.065.368-.04.527.157.365.323.372.558.26.14-.234.27-.403.174-.714-.083-.273-.262-.375-.384-.332zm.78 3.846l-.324-1.458c-.004-.015-.015-.02-.018-.036l.341 1.494zm.39-.172l-.234-1.497.233 1.497zm.096.647c.2-.166.265-.484.211-.958-.117-.858-.206-1.281-.256-1.755a7.603 7.603 0 0 1-.043-1.341c-.239.414-.362.65-.378 1.396-.157-.475-.16-.548-.416-.796a2.232 2.232 0 0 0-.055 1.013c-.38-.928-.574-.794-.805-.826.242.457.34.685.459 1.09.156.52.242 1.05.412 1.76.092.417.26.574.527.55-.128.141-.128.332-.134.494.088.412.247.483.495.464.177-.175.334-.288.297-.625-.035-.295-.189-.462-.314-.466zm.071 4.008l-.057-1.529c0-.015-.009-.025-.009-.042l.066 1.571zm.407-.017l.04-1.535-.04 1.535zm-.023.661c.223-.085.345-.367.374-.846.039-.874.028-1.314.065-1.791.026-.37.056-.707.197-1.312-.305.31-.465.49-.615 1.205-.066-.517-.058-.59-.26-.925a2.03 2.03 0 0 0-.232.957c-.203-1.041-.413-.983-.63-1.102.15.533.202.788.247 1.226.06.562.05 1.106.089 1.856.015.437.148.653.41.731-.151.087-.182.271-.216.427.011.43.153.557.395.633.202-.1.373-.15.395-.49.023-.299-.099-.517-.219-.569zm-.64 3.899l.217-1.498c.002-.016-.006-.03 0-.044l-.216 1.542zm.396.136l.31-1.467-.31 1.467zm-.136.63c.227.004.395-.224.508-.675.191-.829.26-1.258.38-1.707.09-.347.178-.66.423-1.192-.35.184-.535.299-.808.932.028-.525.05-.59-.086-.991-.219.25-.324.498-.396.837-.011-1.083-.224-1.107-.412-1.305.052.574.058.84.023 1.28-.043.564-.151 1.085-.244 1.825-.066.428.029.687.267.862-.163.025-.225.193-.285.33-.065.42.048.598.271.761.21-.021.384-.006.47-.325.07-.28-.007-.537-.111-.631zm-1.312 3.524l.475-1.366c.006-.012 0-.03.006-.042l-.481 1.408zm.358.28l.56-1.3-.56 1.3zm-.245.558c.222.09.422-.068.612-.46.333-.729.475-1.116.668-1.505.152-.3.29-.569.621-.991-.37.045-.569.085-.944.595.118-.496.153-.552.09-.99-.256.16-.399.359-.526.659.18-1.051-.023-1.154-.17-1.415-.052.571-.095.83-.206 1.243-.142.528-.336.992-.557 1.67-.14.389-.097.675.105.934-.16-.034-.25.102-.334.212-.139.38-.06.594.126.837.208.06.373.14.509-.137.123-.24.091-.52.006-.652zm-1.89 2.91l.7-1.14c.01-.01.007-.03.015-.04l-.715 1.18zm.296.406l.772-1.045-.772 1.045zm-.335.446c.198.169.42.093.674-.213.45-.578.655-.901.91-1.2.2-.234.385-.442.775-.725-.364-.097-.566-.132-1.016.217.205-.433.245-.475.264-.922-.276.057-.452.195-.629.437.362-.946.185-1.122.09-1.432-.152.535-.24.77-.42 1.125-.23.459-.5.83-.836 1.403-.202.324-.211.616-.063.94-.148-.092-.261.005-.358.08-.203.316-.163.552-.03.855.191.137.337.28.518.063.16-.19.18-.47.12-.628zm-2.34 2.095l.877-.838c.011-.005.011-.024.02-.031l-.897.869zm.214.504l.93-.717-.93.717zm-.404.305c.161.237.39.248.688.048.538-.387.795-.62 1.095-.816.231-.15.445-.28.875-.405-.336-.232-.522-.343-1.022-.175.276-.342.322-.366.42-.791-.278-.048-.469.02-.685.185.516-.78.38-1.015.339-1.35-.239.46-.364.652-.6.929-.307.354-.635.612-1.059 1.039-.254.235-.313.514-.227.884-.126-.146-.255-.095-.363-.06-.25.23-.253.473-.178.817.162.204.275.396.492.255.185-.121.256-.386.225-.56zm-2.63 1.137l.996-.476c.008-.003.014-.02.026-.022l-1.022.498zm.117.568l1.024-.341-1.024.341zm-.445.143c.115.289.33.386.658.307.587-.172.873-.3 1.201-.374.25-.056.48-.103.917-.062-.285-.351-.444-.527-.957-.555.328-.225.376-.232.547-.605-.26-.151-.458-.16-.695-.08.635-.557.543-.838.566-1.176-.313.353-.469.493-.746.67-.358.227-.719.352-1.206.602-.285.133-.393.38-.376.77-.097-.19-.227-.187-.339-.194-.282.127-.33.36-.315.721.12.257.196.485.427.43.202-.045.316-.273.318-.454zm-2.742.104l1.046-.083c.012 0 .018-.015.03-.014l-1.076.097zm.011.592l1.05.057-1.05-.057zm-.453-.031c.058.324.25.501.581.547.597.056.9.04 1.226.09.251.04.482.086.897.291-.211-.447-.336-.68-.826-.9.357-.093.405-.082.635-.378-.224-.244-.415-.326-.658-.338.715-.299.674-.605.757-.923-.366.223-.54.298-.839.364-.387.085-.757.068-1.272.128-.299.02-.447.218-.5.6-.06-.22-.186-.268-.292-.316-.294.018-.383.224-.434.576.068.296.103.546.335.58.205.032.357-.147.39-.321zm-3.06-35.065l1.028-.315c.012-.006.02.007.028.002l-1.055.313zm-.09-.577l1.004-.454-1.004.454zm-.432.2c-.004-.333.153-.576.463-.744.566-.282.86-.38 1.167-.555.236-.134.452-.263.817-.617-.125.511-.205.782-.638 1.179.358-.041.404-.073.678.127-.171.32-.342.471-.572.575.74.019.757.329.893.606-.393-.077-.575-.085-.876-.035-.388.064-.743.22-1.25.358-.293.094-.472-.041-.589-.391-.02.235-.134.328-.227.414-.288.096-.41-.07-.521-.392.014-.311.002-.564.221-.686.191-.107.368.007.434.161zM35.87 23.58l.937-.694c.008-.008.02 0 .027-.009l-.964.703zm-.19-.522l.89-.82-.89.82zm-.383.357c-.062-.323.047-.617.314-.895.5-.486.765-.694 1.03-.977.208-.22.393-.425.68-.906-.031.541-.06.833-.408 1.38.34-.175.377-.223.679-.133-.11.375-.245.584-.453.771.72-.262.792.032.97.248-.393.075-.569.136-.85.297-.362.209-.68.495-1.145.82-.267.2-.46.138-.637-.156.023.233-.071.367-.145.486-.262.202-.41.087-.575-.182-.04-.305-.097-.546.094-.747.165-.175.356-.131.446-.006zm-1.991 2.76l.78-1.022c.008-.013.02-.009.028-.02l-.808 1.042zm-.28-.432l.718-1.127-.718 1.127zm-.304.49c-.117-.29-.063-.613.146-.984.396-.658.617-.959.822-1.333.16-.289.301-.559.495-1.13.069.533.09.826-.148 1.486.296-.299.324-.359.632-.387-.04.404-.134.659-.298.917.645-.525.767-.268.978-.127-.367.22-.527.346-.771.609-.314.338-.566.734-.96 1.223-.22.295-.42.308-.643.092.063.217-.002.38-.055.524-.215.294-.377.238-.585.042-.094-.28-.19-.491-.042-.757.127-.232.321-.263.43-.176zm-1.434 3.418l.572-1.282c.006-.015.02-.015.022-.03l-.594 1.312zm-.345-.312l.493-1.358-.493 1.358zm-.207.589c-.165-.235-.17-.568-.035-1.005.266-.785.425-1.16.559-1.598.102-.34.193-.654.278-1.28.16.491.234.764.12 1.493.233-.402.25-.469.54-.613.035.405-.011.687-.124.998.531-.752.694-.548.922-.493-.314.352-.447.534-.635.88-.242.445-.419.924-.712 1.544-.162.37-.353.457-.606.333.1.186.065.368.04.527-.157.365-.322.372-.558.26-.14-.234-.27-.403-.173-.714.082-.273.262-.375.384-.332zm-.78 3.846l.327-1.458c0-.015.012-.02.015-.036l-.343 1.494zm-.39-.172l.234-1.497-.234 1.497zm-.097.647c-.199-.166-.264-.484-.21-.958.119-.858.204-1.281.256-1.755a7.7 7.7 0 0 0 .043-1.341c.238.414.36.65.378 1.396.157-.475.16-.548.416-.796.101.379.107.668.053 1.013.382-.928.575-.794.806-.826a5.17 5.17 0 0 0-.458 1.09c-.154.52-.242 1.05-.412 1.76-.092.417-.26.574-.528.55.132.141.129.332.134.494-.087.412-.247.483-.494.464-.177-.175-.334-.288-.294-.625.032-.295.187-.462.31-.466zm-.07 4.008l.056-1.529c0-.015.008-.025.008-.042l-.064 1.571zm-.405-.017l-.043-1.535.043 1.535zm.02.661c-.222-.085-.342-.367-.373-.846-.04-.874-.029-1.314-.066-1.791a7.359 7.359 0 0 0-.196-1.312c.308.31.464.49.615 1.205.065-.517.058-.59.26-.925.167.326.224.603.232.957.202-1.041.413-.983.632-1.102-.153.533-.205.788-.25 1.226-.057.562-.046 1.106-.089 1.856-.01.437-.148.653-.41.731.152.087.183.271.217.427-.011.43-.154.557-.395.633-.203-.1-.374-.15-.397-.49-.022-.299.1-.517.22-.569zm.64 3.899l-.216-1.498c-.003-.016.005-.03.003-.044l.213 1.542zm-.395.136l-.31-1.467.31 1.467zm.136.63c-.227.004-.392-.224-.51-.675-.19-.829-.258-1.258-.378-1.707a6.473 6.473 0 0 0-.42-1.192c.346.184.534.299.804.932-.027-.525-.048-.59.089-.991.219.25.321.498.392.837.011-1.083.225-1.107.416-1.305-.054.574-.06.84-.025 1.28.045.564.15 1.085.244 1.825.066.428-.029.687-.267.862.162.025.225.193.285.33.064.42-.05.598-.268.761-.213-.021-.388-.006-.47-.325-.074-.28.003-.537.108-.631zm1.312 3.524l-.475-1.366c-.006-.012 0-.03-.006-.042l.48 1.408zm-.358.28l-.558-1.3.558 1.3zm.244.558c-.219.09-.42-.068-.611-.46-.334-.729-.476-1.116-.669-1.505-.151-.3-.29-.569-.62-.991.369.045.572.085.944.595-.12-.496-.151-.552-.091-.99.256.16.401.359.53.659-.18-1.051.02-1.154.167-1.415.052.571.094.83.204 1.243.144.528.34.992.559 1.67.14.389.097.675-.105.934.162-.034.254.102.333.212.139.38.06.594-.126.837-.207.06-.372.14-.51-.137-.118-.24-.09-.52-.005-.652zm1.89 2.91l-.7-1.14c-.008-.01-.006-.03-.014-.04l.714 1.18zm-.296.406l-.77-1.045.77 1.045zm.336.446c-.2.169-.419.093-.674-.213-.45-.578-.655-.901-.911-1.2a3.873 3.873 0 0 0-.774-.725c.364-.097.566-.132 1.016.217-.202-.433-.244-.475-.265-.922.279.057.452.195.63.437-.36-.946-.183-1.122-.09-1.432.152.535.24.77.42 1.125.23.459.503.83.836 1.403.202.324.21.616.063.94.146-.092.261.005.358.08.202.316.165.552.029.855-.192.137-.337.28-.518.063a.682.682 0 0 1-.12-.628zm2.34 2.095l-.877-.838c-.011-.005-.011-.024-.02-.031l.896.869zm-.214.504l-.928-.717.928.717zm.404.305c-.163.237-.39.248-.688.048-.539-.387-.795-.62-1.094-.816a2.92 2.92 0 0 0-.876-.405c.336-.232.524-.343 1.022-.175-.277-.342-.322-.366-.419-.791.276-.048.47.02.683.185-.515-.78-.375-1.015-.338-1.35.242.46.367.652.603.929.304.354.632.612 1.056 1.039.253.235.313.514.227.884.128-.146.253-.095.362-.06.25.23.256.473.179.817-.162.204-.276.396-.49.255-.187-.121-.256-.386-.227-.56zm2.632 1.137l-.996-.476c-.01-.003-.017-.02-.025-.022l1.021.498zm-.116.568l-1.028-.341 1.028.341zm.441.143c-.114.289-.33.386-.655.307-.589-.172-.876-.3-1.201-.374a2.557 2.557 0 0 0-.92-.062c.285-.351.445-.527.957-.555-.324-.225-.375-.232-.546-.605.26-.151.458-.16.694-.08-.635-.557-.543-.838-.566-1.176.313.353.47.493.746.67.358.227.72.352 1.206.602.285.133.393.38.376.77.097-.19.227-.187.339-.194.281.127.33.36.315.721-.116.257-.194.485-.427.43-.201-.045-.315-.273-.318-.454zm2.743.104l-1.046-.083c-.01 0-.018-.015-.03-.014l1.076.097zm-.011.592l-1.05.057 1.05-.057zm.453-.031c-.057.324-.251.501-.578.547-.6.056-.899.04-1.226.09-.254.04-.484.086-.9.291.214-.447.336-.68.825-.9-.352-.093-.401-.082-.63-.378.22-.244.411-.326.653-.338-.714-.299-.674-.605-.755-.923.365.223.539.298.84.364.385.085.758.068 1.27.128.298.02.447.218.501.6.06-.22.184-.268.29-.316.296.018.384.224.435.576-.068.296-.102.546-.336.58-.205.032-.352-.147-.389-.321z" stroke="#FFF" stroke-width=".022"/><path d="M39.069 43.029a23.51 23.51 0 0 1-.208-.998 23.671 23.671 0 0 1-.277-4.374c.183.524.314 1.068.436 1.61.234 1.094.419 2.213.432 3.335 0 .505-.007 1.012-.045 1.517a10.339 10.339 0 0 1-.338-1.09zm8.65-2.501l-.067-.89c-.026-.665-.031-1.316.008-1.98.023-.308.054-.614.092-.92.113-.79.276-1.549.506-2.312.222-.682.478-1.363.837-1.987.15-.248.353-.46.532-.688.105-.145.18-.278.25-.445l.058-.202.027-.29-.073-.419-.21-.365-.242-.24-.232-.152-.406-.17a3.249 3.249 0 0 0-.573-.111 4.147 4.147 0 0 0-.728-1.339 3.975 3.975 0 0 0-.466-.443 3.972 3.972 0 0 0-.445-.27 3.546 3.546 0 0 0-.512-.178 3.634 3.634 0 0 0-.563-.064 3.218 3.218 0 0 0-.53.064c-.168.047-.32.102-.478.173a3.66 3.66 0 0 0-.41.252c-.242.192-.435.39-.623.634-.225.316-.41.647-.547 1.01a2.812 2.812 0 0 0-.472.096l-.19.078-.205.116-.21.17-.203.249-.148.33-.046.32c.01.157.02.295.052.448.073.294.182.574.282.86.202.607.323 1.205.384 1.843.077 1.08-.023 2.157-.206 3.22-.079.431-.167.861-.296 1.281-.37-1.189-.56-2.44-.657-3.68a14.65 14.65 0 0 1 .01-2.147c.03-.329.073-.655.184-.969l.08-.208c.07-.207.096-.388.105-.61l-.034-.296-.122-.323-.183-.269-.207-.198-.21-.14-.385-.16-.337-.073c-.25-.639-.628-1.2-1.168-1.625a3.693 3.693 0 0 0-.357-.222 2.694 2.694 0 0 0-.574-.195 2.857 2.857 0 0 0-.484-.024c-.156.015-.301.038-.459.07a2.93 2.93 0 0 0-.687.295l-.24.166c-.37.307-.626.646-.853 1.068a5.72 5.72 0 0 0-.246.574c-.353.093-.657.26-.944.484l-.165.165-.163.223-.136.306-.06.38.049.335.158.385c.166.288.357.556.54.833.292.465.536.936.755 1.44.14.349.262.693.37 1.05.123.439.22.87.302 1.316.06.395.108.785.145 1.182.04.56.057 1.113.051 1.673-.007.303-.02.602-.04.903-.067.827-.19 1.623-.384 2.428-.06.235-.128.466-.2.696-.266.813-.599 1.61-1.151 2.274-.077.087-.16.17-.242.255a2.018 2.018 0 0 0-.314.5l-.087.35-.015.238.054.332.143.31.176.228.176.162.336.211c.163.07.31.124.48.171.164.538.429 1.009.812 1.42.11.103.216.193.336.283.182.122.353.209.558.288.168.053.322.084.495.105.182.008.338.001.521-.024a2.8 2.8 0 0 0 .475-.153c.143-.072.268-.147.396-.24.23-.185.407-.376.58-.614.228-.346.402-.717.51-1.115l.256-.083c.103.475.25.911.493 1.333l.158.229c.188.229.365.382.618.538l.177.08.193.065.205.04.207.012.197-.012.367-.087c.165-.07.299-.143.45-.244l.225-.198c.406-.436.644-.967.785-1.54l.1.018c.18.515.461.968.848 1.35l.21.18c.294.21.567.337.918.424.156.028.3.042.458.048.179-.007.338-.026.514-.062.165-.047.31-.102.467-.174a2.94 2.94 0 0 0 .396-.25c.233-.19.415-.386.595-.628.156-.23.281-.46.392-.715.048-.123.09-.246.13-.37.2-.053.371-.129.553-.224l.171-.118.182-.162.176-.232.143-.314.054-.363-.037-.318-.074-.237a3.665 3.665 0 0 0-.325-.57 46.63 46.63 0 0 1-.327-.46 8.772 8.772 0 0 1-.84-1.555c-.096-.26-.185-.517-.267-.783a13.955 13.955 0 0 1-.299-1.32l-.108-.791zm-3.334-1.336c.111-.53.235-1.054.392-1.573.048 1.08.006 2.153-.124 3.226-.057.368-.12.73-.197 1.095a13.575 13.575 0 0 1-.51 1.703 28.736 28.736 0 0 1-.008-.65c.014-1.275.202-2.554.447-3.801z" fill="#C9A665"/><path d="M39.664 45.94c-.089-.148-.174-.3-.262-.449a9.616 9.616 0 0 1-.734-1.74 16.646 16.646 0 0 1-.314-1.251 24.6 24.6 0 0 1-.236-1.634c-.105-1.18-.166-2.379-.097-3.564.026-.39.063-.792.197-1.164a.566.566 0 0 1 .116-.209c.12.073.213.24.288.353.447.79.689 1.69.903 2.567.278 1.227.494 2.49.512 3.75-.003.889-.026 1.784-.188 2.66a5.706 5.706 0 0 1-.185.68zm.022 1.277l.094.09c.109.057.217.12.34.148.021.148.05.294.081.44.151.631.379 1.275.96 1.627.127.06.232.095.371.122h.263c.214-.038.358-.099.538-.22.083-.068.157-.135.23-.214.37-.458.558-1.043.646-1.618.108-.019.205-.051.305-.1.236.095.464.128.716.134.155.626.462 1.205.971 1.612.186.132.36.222.578.293l.216.045c.308.033.55 0 .84-.108.227-.104.404-.224.587-.394l.158-.168c.345-.428.55-.899.669-1.434.308-.029.579-.125.835-.298l.11-.1.106-.137.08-.18.031-.203-.023-.188a1.93 1.93 0 0 0-.168-.387c-.145-.23-.31-.45-.467-.673a9.305 9.305 0 0 1-.797-1.426 13.348 13.348 0 0 1-.39-1.077 21.27 21.27 0 0 1-.244-1.009c-.071-.402-.131-.8-.18-1.205l-.074-.92a24.36 24.36 0 0 1-.008-1.715c.026-.434.062-.862.113-1.294.095-.658.223-1.295.393-1.938.25-.887.564-1.775 1.028-2.578.15-.25.344-.467.526-.693.12-.149.188-.27.24-.455l.017-.158-.043-.24-.122-.21-.146-.145-.148-.098-.29-.121a2.962 2.962 0 0 0-.842-.1 4.153 4.153 0 0 0-.575-1.329 2.867 2.867 0 0 0-.532-.555l-.223-.146a2.076 2.076 0 0 0-.796-.242h-.28a1.903 1.903 0 0 0-.835.295l-.198.146c-.506.45-.816 1.038-1.004 1.682a1.687 1.687 0 0 0-.828.12l-.127.073-.13.103-.113.142-.085.185-.026.184c.008.188.043.34.1.518.085.259.181.514.265.773.181.59.292 1.172.349 1.786.094 1.352-.057 2.726-.347 4.045-.14.583-.298 1.165-.585 1.693-.046.073-.09.142-.144.207-.145-.16-.246-.402-.332-.599a9.836 9.836 0 0 1-.405-1.244 17.934 17.934 0 0 1-.542-4.42c.01-.626.03-1.267.184-1.876.072-.253.194-.49.225-.752l-.017-.278-.07-.191-.11-.16-.128-.12-.267-.155a2.241 2.241 0 0 0-.723-.124c-.213-.72-.624-1.421-1.273-1.828a2.261 2.261 0 0 0-.292-.135c-.47-.142-.905-.069-1.338.148-.239.139-.42.292-.607.498a3.74 3.74 0 0 0-.682 1.37 2.068 2.068 0 0 0-1.01.425l-.108.106-.1.137-.083.18-.03.217.027.19c.06.17.131.303.225.455.131.197.263.392.393.59.362.575.654 1.154.908 1.785.145.389.267.775.375 1.175.09.355.163.705.228 1.064.063.41.114.817.153 1.23.042.58.06 1.152.055 1.733-.008.313-.023.622-.042.934-.074.86-.2 1.69-.4 2.528-.064.246-.134.489-.21.73a9.434 9.434 0 0 1-.78 1.79c-.147.244-.304.468-.486.689-.082.091-.168.178-.25.265a1.01 1.01 0 0 0-.254.53l-.008.137.028.19.082.178.106.138c.111.102.208.17.339.244.227.098.446.16.69.178.144.679.454 1.318 1.017 1.743l.193.12c.277.132.512.182.818.167.21-.028.372-.08.56-.176l.188-.124c.546-.441.846-1.11.964-1.792.291-.007.587-.072.803-.277zm3.905-1.534a7.121 7.121 0 0 1-.128-.697 15.482 15.482 0 0 1-.069-2.932c.131-1.576.387-3.162.848-4.676.148-.443.299-.883.564-1.272.068-.081.088-.158.184-.094.152.126.211.405.255.586.124.618.13 1.259.136 1.887 0 .378-.012.754-.029 1.13-.04.576-.1 1.137-.185 1.707-.065.367-.136.727-.221 1.09-.16.596-.342 1.163-.576 1.734-.153.359-.321.704-.504 1.05-.09.163-.181.325-.275.487z" fill="#FFF"/><path d="M44.908 35.36c.991 0 1.093 1.497 1.093 3.278-.017 5.593-2.328 7.713-2.328 8.278 0 .17.609.254 1.06.142.139 1.158.747 2.033 1.53 2.033.888 0 1.497-1.158 1.531-2.147.487.086 1.096-.084 1.096-.339 0-.594-2.383-2.034-2.383-7.967 0-3.957 1.461-6.613 1.757-7.037.364-.508.591-.677.591-.819 0-.34-.975-.452-1.496-.283-.105-1.044-.678-2.373-1.807-2.373-.956 0-1.603 1.215-1.74 2.26-.609-.226-1.183-.113-1.183.142 0 .423.748 1.525.748 3.843 0 2.543-.783 5.877-1.705 5.877-.99 0-1.878-4.041-1.878-6.753 0-2.402.419-2.628.419-2.94 0-.366-.663-.423-1.201-.338-.174-1.103-.888-2.09-1.566-2.09-.922 0-1.496.875-1.738 2.09-.504-.057-1.219.226-1.219.509 0 .452 2.382 2.402 2.382 7.968 0 3.588-1.059 6.47-2.31 7.685-.088.086-.14.17-.14.284 0 .253.644.479 1.182.338.034.989.591 2.09 1.408 2.09.748 0 1.323-1.101 1.323-2.204.61.198.99.029.99-.141 0-.622-1.949-1.893-1.949-8.561 0-2.26.384-2.881.96-2.881 1.215 0 2.276 5.057 2.276 7.318 0 3.447-.555 3.53-.555 4.181 0 .14.347.198.59.198.036.763.35 2.15 1.026 2.15.61 0 .99-1.161 1.025-2.093.296.084.68.027.68-.17 0-.34-.592-.65-.592-3.87 0-2.29.923-7.658 2.123-7.658" fill="#9B1536"/><path d="M41.608 16.386c3.434-.025 6.732 1.762 8.22 3.222.923.905 1.763 1.87 2.448 2.9l1.096-.063.968 1.289 1.61-1.29h2.516l-1.87-2.9c-.777-.088-.898-.125-1.354 0-.968-1.481-2.256-2.835-3.674-3.932-2.726-1.95-5.903-3.353-9.96-3.352-4.11.046-7.326 1.49-10.093 3.48-1.29 1.032-2.447 2.323-3.287 3.74-.993-.122-.933-.013-1.741-.129l-1.74 3.094h2.514l1.61 1.289.968-1.29 1.097.064c.684-1.03 1.527-1.995 2.446-2.9 1.492-1.46 4.79-3.247 8.226-3.222z" fill="#FFF"/><path d="M41.608 16.386c3.434-.025 6.732 1.762 8.22 3.222.923.905 1.763 1.87 2.448 2.9l1.096-.063.968 1.289 1.61-1.29h2.516l-1.87-2.9c-.777-.088-.898-.125-1.354 0-.968-1.481-2.256-2.835-3.674-3.932-2.726-1.95-5.903-3.353-9.96-3.352-4.11.046-7.326 1.49-10.093 3.48-1.29 1.032-2.447 2.323-3.287 3.74-.993-.122-.933-.013-1.741-.129l-1.74 3.094h2.514l1.61 1.289.968-1.29 1.097.064c.684-1.03 1.527-1.995 2.446-2.9 1.492-1.46 4.79-3.247 8.226-3.222z" stroke="#C9A665" stroke-width=".85"/><path d="M30.523 20.711l-.217.363-.438-.264-.24.395a.859.859 0 0 0 .245.095c.088.02.183.03.28.03l.017.412a1.645 1.645 0 0 1-.424-.041 1.5 1.5 0 0 1-.206-.064 1.315 1.315 0 0 1-.515-.374.875.875 0 0 1-.185-.366c-.025-.097-.034-.19-.025-.282.012-.09.031-.176.065-.259.035-.084.083-.175.143-.273l.105-.18.361.105-.17.284a.76.76 0 0 0-.118.309c-.006.09.004.16.03.213.025.053.062.11.11.169l.217-.36-.28-.168.217-.361 1.028.617zm.413-.555l-.263.334-1.269-.992.262-.334 1.27.992zm-.42-.928l.994.19-.307.398-.965-.208-.336-.747.293-.375.322.742zm1.048.129l-1.1-1.18.309-.287.85.912.325-.302-.85-.913.309-.289.851.913.117-.108.177.333-.988.92zm.18-2.36l.338-.255.33.438.045-.72.322-.243.971 1.288-.34.254-.611-.814-.002.003-.032.701.287.38-.338.256-.97-1.288zm1.644-.493a.868.868 0 0 1-.094-.238.468.468 0 0 1 .006-.236.507.507 0 0 1 .128-.232.997.997 0 0 1 .276-.217.948.948 0 0 1 .418-.144.487.487 0 0 1 .313.081c.089.06.163.144.225.251.057.098.102.206.137.326.031.12.048.241.048.363a.787.787 0 0 1-.073.34.572.572 0 0 1-.547.316.81.81 0 0 1-.33-.106 1.332 1.332 0 0 1-.294-.226 1.6 1.6 0 0 1-.213-.278zm.9-.497a.382.382 0 0 0-.109-.131.181.181 0 0 0-.128-.03.465.465 0 0 0-.16.061.48.48 0 0 0-.133.108.178.178 0 0 0-.037.125.375.375 0 0 0 .06.16c.048.086.11.165.182.237a.77.77 0 0 0 .22.16c.07.033.127.038.172.013.032-.02.055-.054.069-.105a.524.524 0 0 0 .006-.178 1.13 1.13 0 0 0-.052-.217 1.003 1.003 0 0 0-.09-.203zm2.225.004l-.384.171-.302-.675-.404.18.208.466c.02.047.04.087.057.119.016.03.037.058.056.082l-.247.378a.78.78 0 0 1-.205-.298l-.612-1.372.387-.171.208.464.404-.181-.205-.464.384-.172.655 1.473zm.868-1.624l-.612.212.077.225.558-.192.025.375-.464.16.092.268.653-.225.027.376-.962.331-.524-1.524.92-.316.21.31zm1.02 1.014l-.411.094-.27-1.168.413-.096.093.416c.074-.063.14-.133.197-.212.056-.078.08-.148.065-.21-.012-.051-.038-.08-.076-.085a.48.48 0 0 0-.154.012l-.627.145.015-.376.638-.147c.178-.043.321-.031.42.034a.429.429 0 0 1 .197.28.553.553 0 0 1 .006.205.736.736 0 0 1-.08.227c-.04.082-.103.167-.188.256-.082.09-.189.183-.32.276l.081.349zm2.21-.408l-.418.058-.102-.733-.442.062.071.507c.006.05.014.093.023.129.009.034.02.066.034.093l-.344.297a.757.757 0 0 1-.114-.344l-.207-1.485.415-.06.071.504.441-.062-.071-.503.419-.06.224 1.597zm.177-1.024a.78.78 0 0 1 .031-.254.509.509 0 0 1 .12-.205.558.558 0 0 1 .224-.141c.094-.033.21-.053.348-.055a.952.952 0 0 1 .434.077.516.516 0 0 1 .237.223.792.792 0 0 1 .074.328c0 .114-.011.23-.04.35-.029.122-.074.235-.134.343a.786.786 0 0 1-.227.26c-.094.066-.2.1-.317.102a.535.535 0 0 1-.315-.091.815.815 0 0 1-.239-.251 1.45 1.45 0 0 1-.146-.34 1.437 1.437 0 0 1-.05-.346zm1.028 0a.344.344 0 0 0-.035-.167.169.169 0 0 0-.094-.087.45.45 0 0 0-.17-.024.448.448 0 0 0-.17.03.182.182 0 0 0-.093.09.374.374 0 0 0-.025.169 1.055 1.055 0 0 0 .156.541c.048.065.097.097.147.096.038 0 .076-.02.109-.059a.549.549 0 0 0 .094-.152c.026-.064.046-.134.06-.213.015-.079.023-.153.02-.224zm1.825-.172l-.645-.056-.02.237.586.05-.13.355-.487-.043-.026.283.689.06-.132.354-1.013-.089.143-1.606.968.085.067.37zm.935.418a.815.815 0 0 1 .099-.235c.046-.067.1-.121.17-.163a.577.577 0 0 1 .257-.074c.1-.007.216.008.347.042a.972.972 0 0 1 .398.194c.09.083.145.176.165.28a.705.705 0 0 1-.02.336 1.378 1.378 0 0 1-.355.618.802.802 0 0 1-.294.187.546.546 0 0 1-.33.012.551.551 0 0 1-.278-.176.801.801 0 0 1-.16-.307 1.366 1.366 0 0 1 0-.714zm.986.285a.415.415 0 0 0 .015-.17.176.176 0 0 0-.068-.11.436.436 0 0 0-.157-.071.452.452 0 0 0-.17-.018.182.182 0 0 0-.114.061.406.406 0 0 0-.072.156c-.025.096-.039.195-.039.298a.74.74 0 0 0 .043.266c.025.075.064.119.113.131.038.011.077.002.123-.025a.586.586 0 0 0 .13-.12c.044-.054.08-.117.117-.19a1.02 1.02 0 0 0 .08-.208zm1.142.261c.034.017.085.05.16.098.07.05.15.116.235.203a.85.85 0 0 1 .203.304.482.482 0 0 1-.003.36.41.41 0 0 1-.091.15.354.354 0 0 1-.14.086c-.054.017-.116.023-.188.017a.893.893 0 0 1-.238-.062l-.726-.278.578-1.505 1.075.413-.037.376-.774-.298-.054.136zm-.264.69l.227.087c.052.02.095.03.131.033.034.002.057-.018.075-.058a.177.177 0 0 0-.01-.151.399.399 0 0 0-.097-.13 1.01 1.01 0 0 0-.192-.132l-.134.35zm.907.756l.757-1.423.373.199-.586 1.102.22.116.585-1.101.373.198-.586 1.101.219.117.586-1.103.373.199-.586 1.103.143.074-.26.275-1.61-.857zm3.375.61l-.529-.371-.136.194.48.338-.287.242-.401-.282-.166.232.567.397-.288.24-.833-.582.925-1.32.796.558-.128.354zm.132 1.717l-.055-.045a.881.881 0 0 1-.333-.647 1.039 1.039 0 0 1 .23-.697.846.846 0 0 1 .18-.165.53.53 0 0 1 .458-.068.8.8 0 0 1 .262.15l.256.206-.15.344-.257-.207a.568.568 0 0 0-.116-.073.221.221 0 0 0-.145-.012c-.057.012-.115.054-.174.125a.594.594 0 0 0-.126.273c-.017.1-.008.2.032.299a.662.662 0 0 0 .245.297l-.307.22zm1.86.059l-.323-.313-.87.897-.303-.292.868-.898-.325-.313.325-.193.808.782-.18.33zm-.802.972l.92-.77.27.322-.641.538.157.186a.408.408 0 0 0 .097.091c.03.02.062.014.094-.013.054-.044.08-.125.076-.242 0-.118-.014-.225-.04-.32l.162.037c.049.012.089.022.12.028a.41.41 0 0 0 .1.01c.037-.001.063-.01.083-.027.028-.022.034-.045.025-.07a.7.7 0 0 0-.094-.128l-.424-.505.341-.158.49.583c.076.091.122.175.14.251a.298.298 0 0 1-.009.2.409.409 0 0 1-.237.218.485.485 0 0 1-.139.018 1.103 1.103 0 0 1-.153-.016.782.782 0 0 1-.029.297.53.53 0 0 1-.156.23.39.39 0 0 1-.18.087.351.351 0 0 1-.22-.037.771.771 0 0 1-.255-.214l-.498-.596zm1.756.556a.876.876 0 0 1 .233-.111.506.506 0 0 1 .234-.011.57.57 0 0 1 .242.112c.08.06.16.147.236.26.1.15.156.285.171.407a.5.5 0 0 1-.058.32.756.756 0 0 1-.236.24 1.35 1.35 0 0 1-.316.158 1.25 1.25 0 0 1-.358.075.785.785 0 0 1-.341-.05.561.561 0 0 1-.354-.524c0-.113.029-.226.08-.336a1.381 1.381 0 0 1 .467-.54zm.56.863c.058-.039.1-.08.123-.118a.184.184 0 0 0 .023-.129.5.5 0 0 0-.075-.155.485.485 0 0 0-.115-.126.18.18 0 0 0-.127-.028.392.392 0 0 0-.158.07c-.08.054-.157.122-.223.2a.754.754 0 0 0-.144.228c-.029.074-.029.133 0 .174.022.032.059.051.11.06a.539.539 0 0 0 .177-.006 1.153 1.153 0 0 0 .409-.17z" fill="#9B1536"/><path d="M16.979 41.817l.278.4.75.77.681.46c-.207.237.345.165.508.256-.183.255.273.156.415.228-.035.093-.176.215-.097.268.114.077.413-.074.572-.12-.062.1-.082.216-.122.32.219-.015.731-.218.658-.048-.12.272.352-.177.677-.097.299-.161.666-.384.896-.48l.646-.27 1.11-1.149-.16 4.3-.341 3.33-1.33 2.31-1.285 1.562 1.403-1.227.671-1.113.592 3.622-.258 1.654-1.236 2.465 1.392 2.174c.53.438.706.877.72 1.315-.689-.54-1.057-.735-1.161-.68.093.04.302.304.54.697-.782-.384-1.143-.467-1.243-.37.128-.01.298.188.384.43-1.235-.421-1.323-.353-1.001-.058-.13.026-.254.052-.38.075-.306.034-.335.09-.932.076-.405.023-.866-.025-1.224-.46l-.923-2.283-.03-1.024-.715-1.88-1.01-.093.657-1.074-1.884 2.34-.865 1.486-1.153 1.42.302.979c.017.48.054.877-.125.726-.268-.364-.353-.194-.558-.333.009 1.025-.336.25-.418.244a2.776 2.776 0 0 0-.513-.278c-.105.134-.008.381-.07.518-.089-.194-.254-.186-.382-.276-.342-.285-1.104-.515-.575-.106.404.632-.506-.048-.76-.071-.134-.011-.268-.026-.398-.037a19.08 19.08 0 0 1-.459-.045c-.426-.094-.623-.495-.597-1.286l2.006-5.568.666-1.53.268-.729-.447-1.211c.003-2.01.458-4.147 1.38-6.448l1.386-3.45.555-2.833.49-1.572.563 1.318-.78-2.173.065-2.943.618-1.248c.117-.67.236-2.289.353-2.958l.185-.353.731-.29c-.267.09-.535.111-.803.201-.178-.043-.335-.161-.514-.314-.176-.152-.308-.604-.162-.972.142-.368.426-.807.802-.943l1.463.092-.856.049 1.046-.911 2.656-.6.845.428 2.561-.534.428-.134.116.676-.04 1.126-.58.75-.149.316-.366.496-.433.38-.726.45-.788 1.028.105 1.517.461.322.692 1.765 1.18 1.246.169 1.959-1.45.701-.946-.783.859.992 2.872-1.317c.609.13 1.132.467 1.619.898l.83 2.24c.023.803.006 1.574-.62 2.231.094-.814-.076-.717-.187-.383-.14-.699-.407-.736-.353-.399-.197-.209-.316-.605-.515-.253-.03-.428-.151-.384-.229-.57-.33-.512-.477-.744-.659-.39-.32.38-.635.764-.952 1.145-.375.393-.75.786-1.123 1.18-.319.28-.634.408-.953.514-.356.237-.663.44-.775.4-.068.04.094-.026.046-.079-.139.045-.277.093-.416.138.049-.059.114-.225.09-.25-.08.126-.471.284-.573.317l.1-.369c-.132.04-.482.097-.585.18.493-.637-.042-.137-.37-.21.023-.23.066-.266.086-.417-.074.184-.256.052-.578.151-.242-.191.425-.202-.497-.287.065-.193-.228-.194-.512-.337l-1.002-1.015zm5.594-7.366l1.184 1.332.134 1.476.57-.595.375-.779.216.24.39-.823.054.523.714-1.494.217.309.464-1.041 1.192-4.735 1.258-.532.32.325.102-.919.374.396-.085-.891.331-.026-.273-.531.413-.001-.715-.892-1.927.51c-1.03.97-.797.59-1.827 1.56l-1.784 2.892-1.307 1.239-.606.52-.461.18.677 1.757zm-2.006-7.493c.003.118-.32.471-.344.543l-.333.053.12-.505.557-.091zm45.282 14.86c-.094.132-.185.266-.28.398-.247.257-.498.514-.748.772l-.683.458c.208.238-.344.166-.507.257.182.255-.27.156-.415.228.035.093.177.215.097.268-.114.077-.413-.074-.572-.12.063.1.083.216.125.32-.22-.015-.734-.218-.66-.048.12.272-.353-.177-.678-.097-.298-.161-.663-.384-.895-.48-.226-.094-.43-.179-.644-.27l-1.11-1.149.156 4.3.341 3.33 1.33 2.31 1.289 1.562-1.405-1.227-.673-1.113-.591 3.622.26 1.654 1.234 2.465-1.392 2.174c-.529.438-.705.877-.72 1.315.69-.54 1.056-.735 1.16-.68-.092.04-.3.304-.54.697.783-.384 1.145-.467 1.245-.37-.129-.01-.297.188-.383.43 1.233-.421 1.322-.353 1-.058.128.026.253.052.378.075.307.034.336.09.934.076.406.023.866-.025 1.223-.46l.923-2.283.03-1.024.715-1.88 1.01-.093-.657-1.074 1.884 2.34.865 1.486 1.153 1.42-.301.979c-.015.48-.055.877.125.726.267-.364.352-.194.557-.333-.008 1.025.336.25.421.244.242-.156.399-.239.51-.278.105.134.009.381.074.518.085-.194.25-.186.379-.276.341-.285 1.106-.515.574-.106-.404.632.507-.048.76-.071.134-.011.267-.026.401-.037.151-.014.305-.028.455-.045.43-.094.624-.495.598-1.286l-2.003-5.568-.669-1.53-.267-.729.446-1.211c-.002-2.01-.455-4.147-1.38-6.448l-1.383-3.45-.557-2.833-.49-1.572-.563 1.318.78-2.173-.067-2.943-.617-1.248c-.117-.67-.236-2.289-.353-2.958l-.185-.353-.731-.29c.267.09.535.111.802.201.18-.043.336-.161.515-.314.18-.152.308-.604.166-.972-.143-.368-.428-.807-.806-.943l-1.463.092.86.049-1.051-.911-2.655-.6-.842.428-2.564-.534-.428-.134-.113.676.037 1.126.58.75.148.316.368.496.432.38.726.45.788 1.801-.103.744-.463.322-.692 1.765-1.18 1.246-.17 1.959 1.45.701.948-.783-.86.992-2.871-1.317c-.61.13-1.133.467-1.62.898l-.83 2.24c-.02.803-.006 1.574.62 2.231-.095-.814.076-.717.188-.383.142-.699.409-.736.355-.399.194-.209.314-.605.512-.253.029-.428.154-.384.228-.57.33-.512.48-.744.661-.39.318.38.634.764.95 1.145l1.127 1.18c.315.28.632.408.95.514.36.237.664.44.775.4.068.04-.094-.026-.043-.079l.413.138c-.049-.059-.111-.225-.088-.25.08.126.472.284.572.317l-.1-.369c.13.04.48.097.582.18-.488-.637.044-.137.374-.21-.026-.23-.069-.266-.088-.417.074.184.256.052.577.151.242-.191-.424-.202.499-.287-.066-.193.228-.194.512-.337l1.002-1.015zm-5.595-7.367l-1.184 1.332-.133 1.476-.57-.595-.376-.779-.216.24-.388-.823-.056.523-.714-1.494-.216.309-.465-1.041-1.192-4.735-1.258-.532-.319.325-.1-.919-.378.396.086-.891-.328-.026.27-.531-.412-.001.714-.892 1.93.51c1.03.97.794.59 1.824 1.56l1.784 2.892 1.306 1.239.607.52.46.18-.676 1.757zm2.007-7.493c-.004.118.32.471.343.543l.336.053-.119-.505-.56-.091z" fill="#C9A665"/><path d="M16.979 41.817l.278.4.75.77.681.46c-.207.237.345.165.508.256-.183.255.273.156.415.228-.035.093-.176.215-.097.268.114.077.413-.074.572-.12-.062.1-.082.216-.122.32.219-.015.731-.218.658-.048-.12.272.352-.177.677-.097.299-.161.666-.384.896-.48l.646-.27 1.11-1.149-.16 4.3-.341 3.33-1.33 2.31-1.285 1.562 1.403-1.227.671-1.113.592 3.622-.258 1.654-1.236 2.465 1.392 2.174c.53.438.706.877.72 1.315-.689-.54-1.057-.735-1.161-.68.093.04.302.304.54.697-.782-.384-1.143-.467-1.243-.37.128-.01.298.188.384.43-1.235-.421-1.323-.353-1.001-.058-.13.026-.254.052-.38.075-.306.034-.335.09-.932.076-.405.023-.866-.025-1.224-.46l-.923-2.283-.03-1.024-.715-1.88-1.01-.093.657-1.074-1.884 2.34-.865 1.486-1.153 1.42.302.979c.017.48.054.877-.125.726-.268-.364-.353-.194-.558-.333.009 1.025-.336.25-.418.244a2.776 2.776 0 0 0-.513-.278c-.105.134-.008.381-.07.518-.089-.194-.254-.186-.382-.276-.342-.285-1.104-.515-.575-.106.404.632-.506-.048-.76-.071-.134-.011-.268-.026-.398-.037a19.08 19.08 0 0 1-.459-.045c-.426-.094-.623-.495-.597-1.286l2.006-5.568.666-1.53.268-.729-.447-1.211c.003-2.01.458-4.147 1.38-6.448l1.386-3.45.555-2.833.49-1.572.563 1.318-.78-2.173.065-2.943.618-1.248c.117-.67.236-2.289.353-2.958l.185-.353.731-.29c-.267.09-.535.111-.803.201-.178-.043-.335-.161-.514-.314-.176-.152-.308-.604-.162-.972.142-.368.426-.807.802-.943l1.463.092-.856.049 1.046-.911 2.656-.6.845.428 2.561-.534.428-.134.116.676-.04 1.126-.58.75-.149.316-.366.496-.433.38-.726.45-.788 1.028.105 1.517.461.322.692 1.765 1.18 1.246.169 1.959-1.45.701-.946-.783.859.992 2.872-1.317c.609.13 1.132.467 1.619.898l.83 2.24c.023.803.006 1.574-.62 2.231.094-.814-.076-.717-.187-.383-.14-.699-.407-.736-.353-.399-.197-.209-.316-.605-.515-.253-.03-.428-.151-.384-.229-.57-.33-.512-.477-.744-.659-.39-.32.38-.635.764-.952 1.145-.375.393-.75.786-1.123 1.18-.319.28-.634.408-.953.514-.356.237-.663.44-.775.4-.068.04.094-.026.046-.079-.139.045-.277.093-.416.138.049-.059.114-.225.09-.25-.08.126-.471.284-.573.317l.1-.369c-.132.04-.482.097-.585.18.493-.637-.042-.137-.37-.21.023-.23.066-.266.086-.417-.074.184-.256.052-.578.151-.242-.191.425-.202-.497-.287.065-.193-.228-.194-.512-.337l-1.002-1.015zm5.594-7.366l1.184 1.332.134 1.476.57-.595.375-.779.216.24.39-.823.054.523.714-1.494.217.309.464-1.041 1.192-4.735 1.258-.532.32.325.102-.919.374.396-.085-.891.331-.026-.273-.531.413-.001-.715-.892-1.927.51c-1.03.97-.797.59-1.827 1.56l-1.784 2.892-1.307 1.239-.606.52-.461.18.677 1.757zm-2.006-7.493c.003.118-.32.471-.344.543l-.333.053.12-.505.557-.091zm45.282 14.86c-.094.132-.185.266-.28.398-.247.257-.498.514-.748.772l-.683.458c.208.238-.344.166-.507.257.182.255-.27.156-.415.228.035.093.177.215.097.268-.114.077-.413-.074-.572-.12.063.1.083.216.125.32-.22-.015-.734-.218-.66-.048.12.272-.353-.177-.678-.097-.298-.161-.663-.384-.895-.48-.226-.094-.43-.179-.644-.27l-1.11-1.149.156 4.3.341 3.33 1.33 2.31 1.289 1.562-1.405-1.227-.673-1.113-.591 3.622.26 1.654 1.234 2.465-1.392 2.174c-.529.438-.705.877-.72 1.315.69-.54 1.056-.735 1.16-.68-.092.04-.3.304-.54.697.783-.384 1.145-.467 1.245-.37-.129-.01-.297.188-.383.43 1.233-.421 1.322-.353 1-.058.128.026.253.052.378.075.307.034.336.09.934.076.406.023.866-.025 1.223-.46l.923-2.283.03-1.024.715-1.88 1.01-.093-.657-1.074 1.884 2.34.865 1.486 1.153 1.42-.301.979c-.015.48-.055.877.125.726.267-.364.352-.194.557-.333-.008 1.025.336.25.421.244.242-.156.399-.239.51-.278.105.134.009.381.074.518.085-.194.25-.186.379-.276.341-.285 1.106-.515.574-.106-.404.632.507-.048.76-.071.134-.011.267-.026.401-.037.151-.014.305-.028.455-.045.43-.094.624-.495.598-1.286l-2.003-5.568-.669-1.53-.267-.729.446-1.211c-.002-2.01-.455-4.147-1.38-6.448l-1.383-3.45-.557-2.833-.49-1.572-.563 1.318.78-2.173-.067-2.943-.617-1.248c-.117-.67-.236-2.289-.353-2.958l-.185-.353-.731-.29c.267.09.535.111.802.201.18-.043.336-.161.515-.314.18-.152.308-.604.166-.972-.143-.368-.428-.807-.806-.943l-1.463.092.86.049-1.051-.911-2.655-.6-.842.428-2.564-.534-.428-.134-.113.676.037 1.126.58.75.148.316.368.496.432.38.726.45.788 1.801-.103.744-.463.322-.692 1.765-1.18 1.246-.17 1.959 1.45.701.948-.783-.86.992-2.871-1.317c-.61.13-1.133.467-1.62.898l-.83 2.24c-.02.803-.006 1.574.62 2.231-.095-.814.076-.717.188-.383.142-.699.409-.736.355-.399.194-.209.314-.605.512-.253.029-.428.154-.384.228-.57.33-.512.48-.744.661-.39.318.38.634.764.95 1.145l1.127 1.18c.315.28.632.408.95.514.36.237.664.44.775.4.068.04-.094-.026-.043-.079l.413.138c-.049-.059-.111-.225-.088-.25.08.126.472.284.572.317l-.1-.369c.13.04.48.097.582.18-.488-.637.044-.137.374-.21-.026-.23-.069-.266-.088-.417.074.184.256.052.577.151.242-.191-.424-.202.499-.287-.066-.193.228-.194.512-.337l1.002-1.015zm-5.595-7.367l-1.184 1.332-.133 1.476-.57-.595-.376-.779-.216.24-.388-.823-.056.523-.714-1.494-.216.309-.465-1.041-1.192-4.735-1.258-.532-.319.325-.1-.919-.378.396.086-.891-.328-.026.27-.531-.412-.001.714-.892 1.93.51c1.03.97.794.59 1.824 1.56l1.784 2.892 1.306 1.239.607.52.46.18-.676 1.757zm2.007-7.493c-.004.118.32.471.343.543l.336.053-.119-.505-.56-.091z" stroke="#FFF" stroke-width=".073"/><path d="M6.77 26.41l1.382.59.027-.064-.987-1.499.392-.903.977 1.776c.293-.379.673-.443 1.13-.41.407.033.813.08 1.212.065l-.348.803c-.276.014-.56-.032-.84-.06-.424-.046-.775-.016-.95.384l-.061.142 1.39.595-.319.738-3.325-1.42.32-.737M11.048 21.932c1.035.572 1.312 1.544.796 2.457-.525.93-1.537 1.08-2.437.581-.946-.523-1.315-1.514-.794-2.437.541-.961 1.564-1.084 2.435-.6zm-1.234 2.283c.62.343 1.216.297 1.484-.178.27-.478-.036-1.005-.65-1.345-.565-.314-1.204-.316-1.48.172-.269.48.033 1.011.646 1.351zM10.36 19.822l1.137.793.775-1.091-1.135-.794.47-.66 2.957 2.068-.47.66-1.238-.866-.777 1.092 1.238.864-.474.667-2.956-2.068.473-.665M14.191 15.065l2.234 1.948.254-.254 1.132 1.038-.412.464-.718-.57-1.398 1.575.66.632-.411.464-1.178-.985.182-.238a3.582 3.582 0 0 0-.377-.783 4.383 4.383 0 0 0-.807-.895l-.725-.634 1.564-1.762zm-.202 1.95c.316.274.586.583.788.902.124.191.228.404.294.588l.794-.893-1.717-1.5-.522.587.363.317zM15.604 13.694l.724.784c.39.425.77.852 1.072 1.228l.016-.015a15.771 15.771 0 0 1-.393-1.374l-.386-1.56.618-.56 2.44 2.646-.554.503-.72-.782a15.266 15.266 0 0 1-.985-1.153l-.012.01c.166.426.318.928.417 1.35l.337 1.446-.689.625-2.44-2.645.555-.503M19.069 11.663l-.778.576-.412-.545 2.225-1.65.412.544-.79.587 1.756 2.323-.658.488-1.755-2.323M23.691 10.244l-1.13.696.454.723 1.262-.779.354.565-1.96 1.206-1.907-3.042 1.894-1.168.355.563-1.2.739.398.632 1.13-.696.35.561M23.522 8.013c.206-.152.507-.339.953-.56.45-.226.814-.302 1.118-.238.288.057.562.254.722.567.16.314.19.633.09.908-.131.358-.446.648-.877.863a1.931 1.931 0 0 1-.257.11l.583 1.144-.723.364-1.609-3.158zm1.463 1.09c.07-.017.15-.05.255-.103.388-.194.528-.509.36-.837-.149-.294-.444-.367-.808-.184-.15.074-.242.14-.288.18l.48.944zM30.177 8.808c-.111.126-.396.324-.804.486-1.16.46-2.048-.019-2.43-.966-.46-1.136.102-2.092 1.12-2.495.392-.156.723-.195.886-.18l.086.659a1.775 1.775 0 0 0-.687.13c-.603.24-.925.785-.627 1.526.27.665.838.929 1.516.659.228-.092.463-.241.588-.359l.352.54M30.29 5.127l.43 1.428.068-.02.525-1.712.952-.282-.748 1.884c.481-.02.775.224 1.043.596.235.33.46.668.729.961l-.845.252c-.19-.2-.336-.447-.496-.677-.235-.352-.483-.6-.906-.476l-.149.045.434 1.438-.777.23-1.038-3.437.778-.23M36.498 5.502c.22 1.156-.35 1.988-1.39 2.184-1.055.198-1.823-.475-2.015-1.478-.202-1.057.327-1.973 1.377-2.17 1.09-.205 1.843.492 2.028 1.464zm-2.558.53c.131.69.551 1.115 1.088 1.013.543-.102.758-.672.626-1.356-.121-.634-.53-1.12-1.083-1.016-.545.103-.763.674-.631 1.36zM39.402 5.556l-1.325.118.076.846 1.48-.13.06.662-2.299.203-.32-3.57 2.224-.197.06.663-1.406.123.066.743 1.325-.118.059.657M45.774 3.647l-.262 3.573-.82-.058.215-2.912-1.279-.093-.214 2.912-.819-.059.263-3.576 2.916.213M46.847 3.838c.256 0 .61.03 1.103.116.496.086.834.24 1.039.471.195.217.297.537.236.883-.06.345-.228.62-.475.782-.32.209-.747.254-1.224.171a1.89 1.89 0 0 1-.271-.062l-.222 1.262-.8-.138.614-3.485zm.516 1.742c.067.028.15.047.267.067.427.075.73-.095.793-.457.058-.324-.136-.558-.537-.626a1.312 1.312 0 0 0-.339-.027l-.184 1.043zM52.985 7.002c-.324 1.13-1.211 1.624-2.23 1.338-1.033-.29-1.416-1.233-1.136-2.215.296-1.034 1.183-1.62 2.21-1.332 1.07.3 1.427 1.256 1.156 2.209zm-2.53-.658c-.192.675-.009 1.24.52 1.388.53.15.978-.267 1.17-.937.178-.62.03-1.236-.513-1.389-.532-.148-.985.265-1.177.938zM55.052 5.913l-.405.985a25.69 25.69 0 0 1-.66 1.486l.02.008c.335-.318.738-.666 1.084-.94l1.258-1.014.776.314-1.369 3.319-.695-.282.403-.98c.212-.513.408-.96.633-1.376l-.016-.005c-.316.331-.71.682-1.053.95l-1.175.92-.863-.348 1.367-3.319.695.282M57.877 7.363c.294-.015.692.038 1.133.267.701.368.93.932.683 1.398-.212.396-.622.517-1.04.413l-.006.01c.372.26.578.717.35 1.144-.376.706-1.228.574-1.826.262-.333-.175-.656-.434-.842-.724l.445-.471c.102.15.374.437.674.594.365.19.67.155.81-.106.188-.353-.146-.618-.445-.774l-.302-.16.279-.527.298.157c.329.17.656.15.79-.1.108-.207.009-.44-.3-.601-.247-.13-.576-.175-.803-.18l.102-.602M60.956 8.815c.204.082.585.289.928.51.418.27.649.476.784.747a.775.775 0 0 1-.023.825c-.175.266-.497.416-.92.32l-.007.008c.284.317.372.742.116 1.13a.963.963 0 0 1-.734.434c-.335.032-.769-.11-1.372-.5a6.136 6.136 0 0 1-.712-.522l1.94-2.952zm-.954 2.923c.062.052.143.105.26.18.31.2.662.261.87-.055.2-.304.003-.601-.338-.821l-.236-.152-.556.848zm.878-1.334l.224.146c.36.232.65.21.797-.014.149-.226.053-.46-.258-.66a2.19 2.19 0 0 0-.304-.173l-.46.701zM65.437 14.185c-.747.915-1.76 1.02-2.58.36-.836-.669-.813-1.684-.165-2.48.683-.835 1.731-1.027 2.562-.36.863.692.811 1.712.183 2.48zm-2.062-1.593c-.448.547-.502 1.139-.077 1.48.43.344 1.008.136 1.45-.405.408-.5.517-1.125.079-1.476-.429-.343-1.01-.14-1.452.401zM69.165 15.38l-2.106 2.08.239.268-1.119 1.05-.44-.436.62-.672-1.493-1.485-.68.613-.44-.437 1.068-1.102.228.196c.284-.079.555-.18.812-.323.331-.183.64-.427.956-.739l.685-.676 1.67 1.663zm-1.95-.328a4.235 4.235 0 0 1-.958.722 3.072 3.072 0 0 1-.613.25l.85.845 1.62-1.6-.558-.553-.342.336zM68.889 20.479c-.154-.068-.43-.278-.708-.616-.79-.961-.594-1.943.204-2.588.957-.773 2.047-.527 2.738.314.268.324.405.626.438.785l-.608.278a1.766 1.766 0 0 0-.33-.612c-.411-.498-1.032-.64-1.657-.136-.561.454-.643 1.07-.183 1.63.157.19.371.366.524.45l-.418.495M71.953 19.948l-.543-.797.57-.381 1.554 2.284-.57.38-.551-.81-2.43 1.624-.46-.674 2.43-1.626M73.834 21.64c.14.167.38.53.577.883.242.433.348.72.339 1.024a.785.785 0 0 1-.41.718c-.282.154-.636.134-.966-.147l-.009.005c.102.413-.021.826-.43 1.05a.967.967 0 0 1-.854.043c-.312-.128-.627-.452-.976-1.076a6.072 6.072 0 0 1-.381-.794l3.11-1.705zm-2.225 2.138c.03.075.076.16.144.28.179.32.46.539.794.356.32-.176.286-.53.09-.883l-.136-.242-.892.49zm1.404-.769l.131.233c.208.371.474.487.71.358.24-.131.265-.381.085-.703a2.155 2.155 0 0 0-.187-.292l-.739.404zM75.207 28.371c-1.09.462-2.034.087-2.448-.876-.423-.978.076-1.865 1.023-2.266.997-.421 2.013-.106 2.432.866.437 1.012-.09 1.887-1.007 2.276zm-1.071-2.36c-.65.273-.979.771-.765 1.27.218.503.825.586 1.472.314.597-.254.988-.754.765-1.268-.216-.503-.825-.59-1.472-.317zM21.503 73.215c-.163-.025-.48-.155-.831-.408-1-.715-1.07-1.706-.48-2.531.707-.987 1.805-1.032 2.68-.405.339.242.547.497.62.64l-.506.423a1.73 1.73 0 0 0-.472-.502c-.518-.37-1.147-.346-1.608.298-.414.578-.332 1.19.252 1.608.197.14.446.254.612.296l-.267.58M23.392 73.412l-.675.666-.723-.415 2.717-2.545.915.526-.814 3.636-.752-.431.217-.93-.885-.507zm1.084-.074l.183-.765c.05-.214.128-.475.186-.685l-.008-.004c-.152.156-.332.364-.485.514l-.559.55.683.39zM27.733 72.72l-.553 1.25 1.213.537.553-1.25.735.324-1.44 3.256-.734-.325.602-1.362-1.212-.536-.603 1.362-.739-.327 1.44-3.256.738.327M31.083 74.064l-.459 1.405.066.021 1.392-1.1.93.304-1.67 1.116c.4.252.497.617.506 1.07.002.402-.007.803.043 1.192l-.823-.268c-.041-.27-.02-.552-.018-.829.008-.419-.053-.761-.462-.896l-.147-.048-.463 1.417-.758-.246 1.105-3.386.758.248M33.974 75.603l-.931-.211.15-.66 2.667.607-.15.657-.948-.214-.638 2.813-.789-.178.64-2.814M36.71 77.394l-.09.525-1.364-.233.09-.525 1.364.233M40.41 75.867l-.318 3.545-.806-.072.26-2.888-1.258-.114-.258 2.89-.805-.074.318-3.545 2.867.258M43.226 77.929l-1.31.005.003.844 1.462-.005.003.66-2.271.01-.013-3.56 2.196-.008.003.66-1.39.005.004.739 1.31-.006.003.656M44.664 76.46l-.952.083-.059-.673 2.725-.24.059.673-.968.085.253 2.873-.804.07-.254-2.872M49.233 77.23l-1.29.223.144.832 1.44-.25.112.65-2.236.386-.605-3.504 2.163-.373.113.649-1.368.237.126.728 1.289-.223.112.645M49.59 75.106a6.747 6.747 0 0 1 1.033-.35c.48-.126.847-.124 1.124 0 .266.115.49.36.578.698.09.337.052.653-.101.9-.199.32-.562.537-1.022.658a2.022 2.022 0 0 1-.27.055l.326 1.23-.77.204-.898-3.395zm1.183 1.358c.07-.001.154-.019.266-.047.413-.11.614-.387.52-.74-.083-.315-.353-.447-.74-.344a1.464 1.464 0 0 0-.314.114l.268 1.017zM54.755 73.439l.224.615-1.468.535.21.576a3.69 3.69 0 0 1 .397-.173c.338-.124.721-.168 1.043-.07.294.082.545.29.678.657.12.328.088.625-.042.87-.217.405-.707.696-1.218.884a6.12 6.12 0 0 1-.832.246l-1.215-3.329 2.223-.811zm-.454 3.33c.09-.016.195-.049.3-.087a.767.767 0 0 0 .427-.353.535.535 0 0 0 .023-.445.482.482 0 0 0-.316-.314c-.171-.054-.378-.03-.556.034-.084.032-.171.069-.26.12l.382 1.045zM55.92 72.93l1.001.91c.194.19.35.35.515.51l.014-.007c-.023-.158-.072-.397-.118-.708l-.18-1.284.763-.362.134 1.844c.04.594.07 1.174-.03 1.584-.085.36-.276.65-.654.826-.166.08-.275.109-.381.118l-.223-.607a1.22 1.22 0 0 0 .25-.089.517.517 0 0 0 .292-.506c.004-.066-.031-.101-.08-.143L55.1 73.318l.82-.388M58.212 71.861c.192-.162.478-.367.9-.617.428-.252.782-.35 1.083-.307.287.04.569.218.746.518.177.3.228.615.146.895-.105.362-.396.668-.805.91a1.802 1.802 0 0 1-.245.125l.646 1.097-.688.406-1.783-3.027zm1.507.987c.068-.02.143-.06.244-.118.369-.218.487-.539.302-.853-.166-.281-.462-.335-.806-.13-.143.083-.23.154-.273.195l.533.906zM62.575 68.98l.381.54-1.098.778 1.674 2.367-.659.466-2.057-2.905 1.759-1.245" fill="#FFF"/><path d="M41.554 67.013h-.009c-4.317-.17-8.19-1.565-11.513-4.141l-.197-.18.126 2.912-2.143-2.499-3.122 2.124.927-4.808-.919-4.486 2.583-1.891 1.307-.918 1.299 2.023a18.174 18.174 0 0 0 2.642 3.143c2.402 2.282 5.187 3.373 9.03 3.535 3.822-.162 6.606-1.253 9.008-3.535 1.005-.954 1.821-1.784 2.714-3.043l1.29-1.791 3.827 2.483-1.086 4.96 1.143 4.356-3.094-2.076-2.218 2.377.124-2.843-.196.154c-3.324 2.579-7.196 3.974-11.511 4.144h-.012zM25.752 56.647c.322 0 .797.405 1.168 1.543.823 1.54 2.018 3.048 3.438 4.323 3.223 2.499 6.994 3.856 11.196 4.025 4.512-.05 7.975-1.526 11.21-4.034 1.452-1.145 2.69-2.524 3.578-3.99.443-1.382 1.02-1.708 1.331-1.55l.183-.833-3.12-2.093-1.064 1.428c-.755 1.145-1.719 2.182-2.749 3.163-2.497 2.372-5.382 3.504-9.357 3.671-3.998-.167-6.884-1.299-9.381-3.671a18.652 18.652 0 0 1-2.713-3.23l-1.018-1.586-3.204 2.32.163.8a.333.333 0 0 1 .338-.287zm28.02 6.012l-.07 1.594 1.59-1.704 2.363 1.588-.847-3.224.614-2.802-1.415 2.393-2.235 2.155zm-25.863-.198l1.495 1.745-.068-1.56-2.08-2.427-1.757-2.957a3.311 3.311 0 0 1-.028-.053l.657 3.207-.723 3.749 2.504-1.704z" fill="#C9A665"/><path d="M31.554 59.045l-1.904 1.919-.823-1.086 1.199-1.095-1.616.546-.313-.41 1.005-1.354-1.392.843-.393-.519 2.54-1.082.64.843-.688.847 1.066-.348.68.896zm2.124 1.853l-1.686-1.405-1.728 2.039 1.767 1.472.522-.274-1.068-.617.476-.563.352.536c.028-.222.093-.392.194-.513a.978.978 0 0 1 .439-.3l-.604-.173.449-.528.687.826.2-.5zm2.86 1.448l-.258 1.365-.396-.175-.163-1.241-.009-.003-.976 2.172-1.228-.54.978-2.175-.003-.002-1.045.707-.375-.165.832-1.112 2.642 1.17zm.453.807l-.41 2.08 1.32.255.184-.94.772.353c.212-.115.335-.184.374-.21l.092-.068.119-.091c.025-.019.08-.067.168-.148a2.41 2.41 0 0 0 .267-.313 1.524 1.524 0 0 0-.189-.516 2.84 2.84 0 0 0-.155-.232 1.291 1.291 0 0 0-.113-.169.432.432 0 0 0-.094-.104l-1.416-.274a.312.312 0 0 1-.025.006c-.005.001-.01.002-.018.006l-.025.01a1.16 1.16 0 0 1-.194.06c-.21.067-.43.164-.657.295zm1.144 1.144l.175-.89a.635.635 0 0 1 .46-.183.69.69 0 0 1-.047.402 1.427 1.427 0 0 1-.588.671zm4.738-1.02c.274.428.484 1.012.632 1.75-.229.319-.552.618-.972.905l-1.78-.03a3.052 3.052 0 0 0-.084-.138 3.73 3.73 0 0 1-.178-.4 1.63 1.63 0 0 0-.057-.153l-.068-.158a4.37 4.37 0 0 1-.219-1.125c.178-.152.343-.283.491-.387.153-.106.31-.202.481-.297l1.754.033zm-1.312.252c-.07.062-.127.122-.17.18-.01.02-.021.034-.03.05-.01.012-.02.023-.026.033-.01.015-.016.024-.016.03.018.251.099.557.242.913.144.356.3.65.466.878l.049-.034a.783.783 0 0 0 .125-.111 1.028 1.028 0 0 0 .142-.181c0-.015-.005-.03-.006-.043-.005-.013-.009-.033-.014-.054a2.634 2.634 0 0 0-.08-.301 6.238 6.238 0 0 0-.094-.303 4.479 4.479 0 0 0-.588-1.057zm5.125-1.065l.695 2.573-1.27.337-.574-2.129-.502.133.574 2.129-1.266.335-.694-2.57 3.037-.808zm2.454-1.387l-1.521.87a5.3 5.3 0 0 0-.258.5 6.658 6.658 0 0 0-.22.582c.194.289.45.572.773.851.045.035.093.068.141.103.047.035.091.07.126.1.145.112.264.194.362.253l.141.076 1.544-.883c.21-.46.332-.883.362-1.273-.509-.558-.992-.95-1.45-1.179zm-.994.886c.417.177.768.38 1.053.606.132.114.212.184.239.212.12.109.195.183.225.218.016.017.027.03.04.04l.028.033a1.127 1.127 0 0 1-.03.228.634.634 0 0 1-.05.158c-.013.035-.021.053-.021.058a4.402 4.402 0 0 1-.858-.517c-.307-.233-.535-.453-.682-.66l-.001-.035c0-.01.003-.025.005-.04a.455.455 0 0 0 0-.058c.008-.072.024-.152.052-.243zM51.2 59.29l2.39 1.43-1.034.955-1.197-.846c.165.281.298.54.399.773.1.233.177.434.227.6l-.546.504-.735-.782.459-.42a5.063 5.063 0 0 0-.323-.781 6.815 6.815 0 0 0-.429-.704l.789-.729zm1.505-1.884l-.774 1.056 1.509 1.382c.383-.032.71-.116.979-.25l.79-1.075a2.815 2.815 0 0 0-.003-.872 1.581 1.581 0 0 0-.107-.383 2.206 2.206 0 0 0-.423-.058 2.942 2.942 0 0 0-.476.017 3.117 3.117 0 0 0-.462.086l-.201.881-.832-.784zm1.018.967a.57.57 0 0 1 .298-.076.62.62 0 0 1 .086-.004 1.012 1.012 0 0 1 .282.034.668.668 0 0 1 .172.07.549.549 0 0 1 .135.086l.116.094c-.06.042-.114.072-.163.096a1.626 1.626 0 0 1-.21.072c-.089.025-.155.043-.2.049-.042.006-.07.01-.079.013l-.437-.434z" fill="#91213A"/></g></svg>