<svg width="82" height="83" viewBox="0 0 82 83" xmlns="http://www.w3.org/2000/svg"><title>8D52D67E-1E69-495B-A3E0-100601998B7F</title><g fill="none" fill-rule="evenodd"><path d="M41.018 1.402c21.984 0 39.913 17.93 39.913 39.914 0 21.983-17.93 39.913-39.913 39.913-21.985 0-39.914-17.93-39.914-39.913 0-21.984 17.93-39.914 39.914-39.914z" stroke="#FFF" stroke-width="1.796"/><path d="M41.018 1.402c21.984 0 39.913 17.93 39.913 39.914 0 21.983-17.93 39.913-39.913 39.913-21.985 0-39.914-17.93-39.914-39.913 0-21.984 17.93-39.914 39.914-39.914" fill="#005093"/><path d="M41.018 2.286c21.497 0 39.03 17.532 39.03 39.03 0 21.496-17.533 39.03-39.03 39.03s-39.03-17.534-39.03-39.03c0-21.498 17.533-39.03 39.03-39.03z" stroke="#005093" stroke-width=".539"/><path d="M41.005 2.21c21.545 0 39.117 17.579 39.117 39.08 0 21.55-17.572 39.129-39.117 39.129-21.494 0-39.067-17.578-39.067-39.13 0-21.5 17.573-39.078 39.067-39.078" fill="#FFF"/><path d="M41.005 71.987c16.911 0 30.688-13.783 30.688-30.697 0-16.865-13.777-30.647-30.688-30.647-16.86 0-30.638 13.782-30.638 30.647 0 16.914 13.779 30.697 30.638 30.697" fill="#005093"/><path d="M29.876 20.63l1.402-3.185-1.912-4.74c7.794-3.234 15.535-3.234 23.303 0l-1.885 4.74 1.377 3.184H29.876" fill="#FFF"/><path d="M30.405 15.28h21.241l-.091.23h-21.06l-.09-.23zm-.203 4.611l.112-.256h21.417l.11.256H30.2zm.213-.485l.863-1.961-.69-1.707h20.875l-.679 1.707.846 1.961H30.415z" fill="#FFF"/><path d="M41.005 11.432c16.452 0 29.898 13.426 29.898 29.858 0 16.482-13.446 29.908-29.898 29.908v-.408c16.247 0 29.491-13.247 29.491-29.5 0-16.203-13.244-29.45-29.491-29.45v-.408zm0 59.766c-16.426 0-29.849-13.426-29.849-29.908 0-16.432 13.423-29.858 29.849-29.858v.409c-16.198 0-29.439 13.246-29.439 29.449 0 16.253 13.241 29.5 29.439 29.5v.408z" fill="#FFF"/><path d="M41.005 8.198a8.25 8.25 0 0 1 8.25 8.254c0 4.534-3.691 8.253-8.25 8.253-4.508 0-8.225-3.719-8.225-8.253 0-4.561 3.717-8.254 8.225-8.254" fill="#FFF"/><path d="M1.43 41.556h78.437c-.18 21.472-17.739 38.928-39.244 38.928-21.456 0-39.014-17.456-39.193-38.928" fill="#005093"/><path fill="#FFF" d="M50.224 19.38l-4.278.867v-.866h4.278M31.837 19.38l4.252.867v-.866h-4.252M31.81 14.312H50.25v.254H31.81v-.254zm0 .484H50.25v3.641H31.81v-3.641zm0 3.897H50.25v.23H31.81v-.23zM22.618 27.024c1.298-.764 2.496-1.426 3.82-1.426.788.025 1.579.305 2.343.763.255-.763.636-1.299 1.298-1.707.765-.484 1.783-.534 3.083-.994-.231.765-2.217.613-3.31 1.862-.792.89-.638 1.399-.842 1.476-.229.076-1.068-.738-2.496-.814-1.3-.052-2.47.483-3.896.84M14.06 46.92v1.247c-.61-.025-.991-.433-1.63-.534l-.025-.535.612-.23.152.179.433-.153.459.026zm1.886 1.808v-.917l.254.178.407.026.356-.127.308.177-.104.358.485-.18.102.333.331-.077 1.605-.332-.027.638c-1.07.382-.866.101-1.578.203-.688.077-1.656.458-2.14-.28zM46.684 68.65l-.407-.052v-.23l-.433-.023-.433-.408-.433.1-1.07-.076-.484.027v.255l-.307-.128-.253.025.076-.179-.178-.024.026-.383-.255.026-.026.357-.152.126-.025-.33h-.256l.027-.484-.205-.024-.05.355-.204.051-.027-.205-.28.026-.075.229-.356.232v-.384h-.128v-.509l-.204-.051-1.07.508h-.56v1.351h.306l.458-.154-.05-.585.203-.076.178-.18.102.563.154-.408.254.1c-.051.28-.281.613.128.561.483-.051 1.858-.075 2.8-.075l-.077.816c-.025.379.612.024.842 0l.024-.536-.05-.509.228-.026v.51l.104-.027.05-.254.177.05.027.179.253.051h.435l-.077.509c.866-.025 1.58 0 1.986.18l.101-.588-.253.078-.128-.153-.28.05-.153-.255zm2.012-.052l.026.179h-.254l.025.509-.28.026-.027-.714h.51zm-19.025-2.546v1.173c.127.38.51.584 1.096.608l.024-1.12.18.41.28-.052.077-.307.152.713.179-.764.127.764.382-.252.052.635 3.692.255.84-.434-.23-.306-.049-.177h-.256l-.05.177-.078.051-.025-.228-.255-.306-.1.408-.18.05-.025-.254-.178-.076-.128-.256-.126.052-.028.382h-.201l-.077-.408h-.077l-.05.332-.178-.026-.052-.306-.102.026-.026.255h-.228v-.333h-.078l-.075-.126h-.102l-.077.536-.254-.128v-.56l-.178-.051-.052.355h-.178v-.355h-2.063l-.406-.256-.919-.101zm-4.43-.51c.686.534 1.478 1.019 2.291 1.502v-.61l-.306.05v-.432l-.228.178-.154-.333-.076-.202-.33.229h-.205l-.074-.408-.918.025z"/><path d="M41.005 71.987c16.911 0 30.688-13.783 30.688-30.697 0-16.865-13.777-30.647-30.688-30.647-16.86 0-30.638 13.782-30.638 30.647 0 16.914 13.779 30.697 30.638 30.697" fill="#005093"/><path d="M42.864 46.563c.483.152-.025.612-.051.942.688-.05 1.274 0 1.96-.05.367-.64.732-1.241 1.025-2.076.034-.095.067-.192.097-.294.331-.969 1.529-1.783 2.318-3.132-1.147-.026-3.515-.307-3.54.025-.026.203 1.4.229 1.86.356.202.077.05.382-.282.434-1.145.152-3.285-.026-4.965 0-.645.691-.902 1.728-1.125 2.61-.131.517-.25.977-.43 1.286 1.3.23 2.676-.254 3.133-.101zm22.233-4.89c-.56.05-.638-.612-.28-.663.229-.026 1.3-.102 1.834-.077.458.026.254-.407.152-.382-.687.127-1.885.052-2.445.101-.153.026-.28.307-.203.613.331 1.324 1.834 3.947 2.24 4.102.013.003.027.009.043.015h.004c.505.16 2.628.157 4.155.01l.003-.013c.176-1.27.279-2.54.279-3.86-2.649 0-5.272.102-5.782.153zm-48.54 4.863c.56.434-.789.536-.434.767.357.227.661.28.943.227.434-.076.816-.355 1.4-.177.33.101.84.101 1.656-.102.408-.076.714.457.942.23.924-.828 1.483-1.38 2.325-2.102v-.003c.247-.214.518-.444.832-.697 1.656-1.325 2.522-1.046 3.542-2.472.942-1.325 1.043-2.266 2.723-3.032.104-.128-.355-.203-.56-.509-.203-.332-.178-1.248-.152-1.528 0-.306-.204.126-.304-.077-.104-.178.15-.968-.104-.943-.255.026-.051 1.428-.688 1.428-.635.025-.736-.714-.713-1.223.026-.511-.23-.255-.407-.383-.152-.102.102-.714-.204-.714-.306.026.178 1.504-.534 1.48-.688-.053.024-3.644-.459-3.669-.484 0 0 4.56-.967 4.56-1.096.025-.332-1.988-.891-2.014-.46-.025.025 2.293-.994 2.318-1.043.052-.355-1.885-.713-1.961-.28-.051-.56.178-.688.076-.382-.331-.152-1.12-.33-1.095-.307.026-1.683.688-2.013-.076-.382-.84.128-1.605-.357-1.63-.916-.052-.433-1.428-.687-1.861-.178-.304-.204 2.318-.458 2.268-.305-.077-.23-1.173-.357-1.223-.484-.128-.23.357-.254.841-.026.586-.28.84-.586.917a.98.98 0 0 1-.535-.076c-.179-.076.535 2.624-.815 3.006-1.3.407-.51-1.707-.943-1.758-.306-.026-.306 1.935-1.12 1.885-.051 0-.101 0-.128-.026-.584-.177-.33-1.528-.611-1.528-.484 0-.891.025-1.221.05a28.641 28.641 0 0 0-.537 5.58c0 1.384.096 2.746.285 4.089v.003c.03.215.064.43.098.646.714.027 1.375.204 1.986.382.077.05.179.077.254.102.382.128 2.47-.23 2.778.024zm-2.114-1.579c-.282 0-.432-.56-.79-.586h-.128c-.66 0-1.35.204-1.322-.38.024-.154.686-.18 1.322-.129.486.026.942.102 1.07.205.383.304.332.917-.152.89zm.661-3.234c.178-.357.842-.23 1.962-.152.637.05 1.451.101 2.393.025.485-.051-.203.534.28.51 2.6-.077 6.42-.053 6.444.1a.716.716 0 0 1-.739.74c-.586.05-.714-.23-1.63-.28-.916-.077-4.074.407-5.271.38-.765-.025-.306-.431-.56-.585-.256-.127-.611-.203-.917-.254a4.438 4.438 0 0 0-.637-.077c-.688-.05-1.63.23-1.325-.407zm.383 2.674c0-.153.789-.204 1.579-.179.765.051 1.528.153 1.579.307.1.612-.74.432-1.58.356h-.126c-.69-.077-1.503.256-1.452-.484zm50.502 8.916c-.816 2.42-2.904 3.619-3.005 3.899-.077.28.406.739.05 1.299-.382.56-1.018.229-1.146.408-.152.178-.052.38-.33.485-.688.227-.305.253-.664.533-.254.203-.202-.306-.432-.23-.229.103-.789.561-.74.791.028.23-.151.306-.151.306s-.28-.357-.331-.128c-.026.229-.026.664-.255.664-.23 0 0-.435-.28-.23-.28.176-.51.278-.891.102-.383-.154-.687-.256-.687-.256s-.155.357-.485.357c-.305 0-.102-.306-.484-.306-.356 0-1.3.103-1.3.103s-.28-.51-.508-.434c-.228.101.05.408-.228.408-.255 0-.867-.307-1.071-.307-.28 0-.052.205-.56.205-.51 0-1.198-.205-1.452-.154-.281.053.077-.38-.153-.33-.23.05-.102.458-.433.33-.33-.1-.56-.38-.992-.891-.433-.485-.229-1.247.075-1.605.333-.381 1.4-.458 1.783-.535.382-.05-1.604-.382-1.706-2.547-.102-2.165 1.197-3.338.891-5.707-.841 0-1.681-.05-2.801.051 0 0-1.3 1.503-2.268 1.605-.993.076-1.704.026-2.163-.536-.46-.56-.155.128-.714-.151-.56-.281-.382-.918-.763-.868-.382.052-1.784.18-1.784.18-.1 1.07.128 2.293.23 2.676.052.38.636.787.941.737.764-.128 1.784.357 1.988 1.07.102.408.457.79 0 1.02-.484.254-2.216.611-2.674.636-.459 0-.944-.433-1.783-.535-.84-.077-2.521-.892-3.158-.357-.66.56-.051.613-.535.84-.459.232-.33 0-.636.18-.331.177-.383.841-.714.967-.306.154-.458.154-.688.205-.229.025-.407 1.07-.917 1.453-.507.38-.126.635.103.635.23 0 2.293.18 2.675.586.355.433.89.484.686 1.349-.13.554-.837.867-1.49 1.067h-.015c-.368.118-.72.195-.938.259-.587.178-1.555.128-2.038.51-.485.381-.791.381-1.147.202-.586-.227-3.258.256-3.49.23-.305 0-.687-1.069-1.221-1.069a.948.948 0 0 1-.467-.132c-.327-.185-.583-.536-.654-.837-.076-.432-1.656-.176-2.24-.432-.56-.28-1.147-1.096-1.402-1.376-.28-.28-1.248-.968-1.833-1.655-.586-.69-.994-4.332-.483-4.917-.535.254-.968.229-1.021.637-.05.407.232 1.043-.024 1.146l-.026.025c-.28.077-1.376.254-2.241.637a28.717 28.717 0 0 0 2.14 3.362c.05.026.075.077.127.128a115.855 115.855 0 0 0 2.878 3.364 31.225 31.225 0 0 0 3.26 2.827c.534-.154 1.299-.332 1.603-.255.51.077 4.736-.433 4.941.077.178.509.331.637 3.642.74 3.338.1 4.227.278 5.247.177 1.018-.104-.333.865.713.664 1.043-.18 4.202-.384 4.431-.053.23.305-.56.942-.102.79.459-.126 1.045-.408 1.374-.254.307.128 1.224.024 1.631.077.408.05 1.376.788 1.656.509.281-.282.84-.485 1.909-.663 1.07-.205 3.718-.56 3.998 0 .103.255.383.483.664.663.167-.092.335-.181.5-.274.319-.173.633-.355.943-.543l.044-.025a30.023 30.023 0 0 0 4.547-3.366c0-.003 0-.003.002-.003a29.18 29.18 0 0 0 1.231-1.17h.001a29.878 29.878 0 0 0 7.731-13.497l-3.208-.408c-.433-.05.127 2.47-.713 4.865z" fill="#BAE2EE"/><path d="M41.005 11.432c16.452 0 29.898 13.426 29.898 29.858 0 16.482-13.446 29.908-29.898 29.908v-.408c16.247 0 29.491-13.247 29.491-29.5 0-16.203-13.244-29.45-29.491-29.45v-.408zm0 59.766c-16.426 0-29.849-13.426-29.849-29.908 0-16.432 13.423-29.858 29.849-29.858v.409c-16.198 0-29.439 13.246-29.439 29.449 0 16.253 13.241 29.5 29.439 29.5v.408z" fill="#FFF"/><path d="M29.876 20.63l1.402-3.185-1.912-4.74c7.794-3.234 15.535-3.234 23.303 0l-1.885 4.74 1.377 3.184H29.876" fill="#FFF"/><path fill="#D91D4B" d="M30.096 14.516H51.95l-1.165 2.929 1.377 3.184H29.876l1.402-3.184-1.182-2.93"/><path d="M30.405 15.28h21.241l-.091.23h-21.06l-.09-.23zm-.203 4.611l.112-.256h21.417l.11.256H30.2zm.213-.485l.863-1.961-.69-1.707h20.875l-.679 1.707.846 1.961H30.415z" fill="#FFF"/><path d="M41.005 7.408c4.966 0 9.042 4.076 9.042 9.044 0 4.967-4.076 9.017-9.042 9.017-4.941 0-8.99-4.05-8.99-9.017 0-4.968 4.049-9.044 8.99-9.044" fill="#D91D4B"/><path d="M41.005 8.198a8.25 8.25 0 0 1 8.25 8.254c0 4.534-3.691 8.253-8.25 8.253-4.508 0-8.225-3.719-8.225-8.253 0-4.561 3.717-8.254 8.225-8.254" fill="#FFF"/><path fill="#D91D4B" d="M31.582 19.687l1.404.278.158.665h3.201v-1.25h-4.712l-.051.307M50.48 19.687l-1.393.275-.219.668h-3.151v-1.25h4.685l.077.307"/><path fill="#FFF" d="M50.224 19.38l-4.278.867v-.866h4.278M31.837 19.38l4.252.867v-.866h-4.252"/><path fill="#D91D4B" d="M31.582 13.572h18.897v6.115H31.582z"/><path d="M31.81 14.312H50.25v.254H31.81v-.254zm0 .484H50.25v3.641H31.81v-3.641zm0 3.897H50.25v.23H31.81v-.23z" fill="#FFF"/><path d="M45.903 12.596l.934-.73.459.586-.17.127-.303-.388-.776.592-.144-.187zm.034-1.68l.263.24c.4.352.005.941-.459.557l-.128-.102-.304.332-.168-.16.796-.868zm.137.364l-.083-.069-.25.273.077.076c.23.216.493-.06.256-.28zm-.46-.663l-.203-.128-.545.33.07-.671-.212-.142-.103.942-.075.052c-.099.053-.127.05-.23-.077l-.129.127.128.128c.101.079.218.075.332 0l.966-.56zm-1.833-.586l-.18-.076.103-.229.468.21.085-.19-.7-.309-.49 1.08c.05.025.141.065.23.112.669.355.996-.38.484-.598zm-.255.103c.494.147.27.622-.153.331l.153-.33zm-.996-.974c.606.163.397.899-.219.719l-.09.428-.237-.052.243-1.165.303.07zm-.172.538c.415.147.474-.299.072-.355l-.072.355zm-3.798-.252l.688-.205.051.188-.459.145.075.256.407-.12.053.195-.407.126.078.28.453-.127.059.2-.667.208-.331-1.146zm1.962-.434l.025.204-.314.044.125.97-.222.031-.142-.968-.34.05-.038-.206.906-.125zm1.145 0v.204h-.457v.28h.405V9.7h-.405v.306h.457v.203h-.713V9.012h.713zm-3.107 1.682l-.23.128-.457-.892-.396.235.451.875-.23.123-.554-1.058.865-.48.55 1.069zm-2.32 1.683c-.467 1.126-1.828.27-.914-.664l.152.128c-.683.786.287 1.225.592.432.084.052.119.074.17.104zm.946-1.328l-.535.409-.114-.158.537-.408.112.157zm-.514.938l-.169.174-.168-.169.168-.176.17.171zM46.837 16.961l.383-.357v-.943l-.383-.381h-.97v2.572h.588v-.89h.382zm-.382-1.197h.205v.713h-.205v-.713zm-4.991 2.088l.382-.382v-.688l-.305-.255.278-.254v-.662l-.355-.331h-1.02v2.572h1.02zm-.434-1.07h.23v.587h-.23v-.587zm0-1.018h.23v.535h-.23v-.535zm2.268-.484h1.094v.484h-.509v.484h.432v.483h-.432v.637h.51v.484h-1.095V15.28zm-7.386.484h-.255v1.604h.255v-.61h.585v.712l-.408.382h-.611l-.406-.382v-1.809l.38-.381h.637l.408.381v.612h-.585v-.51zm2.011-.484h1.095v.484h-.51v.484h.434v.483h-.433v.637h.509v.484h-1.095V15.28zM45.207 22.209l.153.153.377-.349.158.17.182-.166-.157-.167.113-.108-.13-.143-.112.11-.508-.57-.23.202.154.868zm.179-.128l-.128-.612.351.403-.223.21zm-.222.678l-.11-.195.128-.075-.102-.179-.129.079-.384-.664-.277.152v.892l.102.179.45-.29.128.219.194-.118zm-.678-.725l.007.633.263-.158-.27-.475zm-1.495 1.703l.209-.981.281.818.251-.104-.396-1.115-.269.109-.187.937-.238-.817-.267.087.347 1.153.269-.087zm.08-1.567l-.156-.012c.022.218-.204.294-.312.097l-.098.088c.118.281.58.167.565-.173zm1.144.88l.05.432-.204.077-.075-.407.229-.102zm-5.655-.56c.235.08.139.41-.14.269a3.014 3.014 0 0 0-.09-.04l.118-.287.112.057zm-.423.703c.038.012.105.038.134.054.278.154.387-.165.115-.306-.022-.01-.082-.037-.122-.052l-.127.304zm-.29.085l.342.16c.557.233.732-.312.426-.516.25-.005.423-.376.009-.595-.103-.054-.212-.096-.32-.144l-.456 1.095zm1.867.606c-1.154.052-.952-1.608.226-1.106l-.076.204c-.788-.4-1.05.714-.113.699l-.037.203zm.576-.465l-.049.57-.214-.026.102-1.172.212.02-.04.49.465-.46.249.02-.505.515.455.653-.276.003-.4-.613zm1.138-.61l.12.827.348-.892.28-.051.193 1.17-.268.052-.13-.864-.35.925-.29.042-.173-1.173.27-.036zm-4.168-.067l.158-.273.361.21.086-.161-.348-.208.137-.251.397.23.094-.17-.603-.343-.586 1.018.616.352.097-.174-.409-.23zm.12-1.086l-.179-.145-.296.37-.39-.315.287-.356-.183-.152-.733.917.175.158.331-.413.39.317-.323.4.182.143.74-.924z" fill="#D91D4B"/><path d="M20.098 27.96c1.3-.765 2.496-1.427 3.82-1.427.79.026 1.578.305 2.343.764.255-.764.637-1.3 1.298-1.707.765-.484 1.784-.534 3.082-.995-.23.766-2.216.613-3.311 1.86-.789.893-.635 1.402-.84 1.48-.229.075-1.069-.74-2.496-.816-1.298-.052-2.47.483-3.896.84M14.06 46.92v1.247c-.61-.025-.991-.433-1.63-.534l-.025-.535.612-.23.152.179.433-.153.459.026zm1.886 1.808v-.917l.254.178.407.026.356-.127.308.177-.104.358.485-.18.102.333.331-.077 1.605-.332-.027.638c-1.07.382-.866.101-1.578.203-.688.077-1.656.458-2.14-.28zM46.684 68.65l-.407-.052v-.23l-.433-.023-.433-.408-.433.1-1.07-.076-.484.027v.255l-.307-.128-.253.025.076-.179-.178-.024.026-.383-.255.026-.026.357-.152.126-.025-.33h-.256l.027-.484-.205-.024-.05.355-.204.051-.027-.205-.28.026-.075.229-.356.232v-.384h-.128v-.509l-.204-.051-1.07.508h-.56v1.351h.306l.458-.154-.05-.585.203-.076.178-.18.102.563.154-.408.254.1c-.051.28-.281.613.128.561.483-.051 1.858-.075 2.8-.075l-.077.816c-.025.379.612.024.842 0l.024-.536-.05-.509.228-.026v.51l.104-.027.05-.254.177.05.027.179.253.051h.435l-.077.509c.866-.025 1.58 0 1.986.18l.101-.588-.253.078-.128-.153-.28.05-.153-.255zm2.012-.052l.026.179h-.254l.025.509-.28.026-.027-.714h.51zm-19.025-2.546v1.173c.127.38.51.584 1.096.608l.024-1.12.18.41.28-.052.077-.307.152.713.179-.764.127.764.382-.252.052.635 3.692.255.84-.434-.23-.306-.049-.177h-.256l-.05.177-.078.051-.025-.228-.255-.306-.1.408-.18.05-.025-.254-.178-.076-.128-.256-.126.052-.028.382h-.201l-.077-.408h-.077l-.05.332-.178-.026-.052-.306-.102.026-.026.255h-.228v-.333h-.078l-.075-.126h-.102l-.077.536-.254-.128v-.56l-.178-.051-.052.355h-.178v-.355h-2.063l-.406-.256-.919-.101zm-4.43-.51c.686.534 1.478 1.019 2.291 1.502v-.61l-.306.05v-.432l-.228.178-.154-.333-.076-.202-.33.229h-.205l-.074-.408-.918.025z" fill="#FFF"/><path d="M45.252 19.941a5.49 5.49 0 0 1-4.247 2.013 5.463 5.463 0 0 1-4.225-2.013h8.472zm-4.247-8.993c1.868 0 3.524.94 4.519 2.37h-9.012a5.472 5.472 0 0 1 4.493-2.37zM33.85 15.941c.252 0 .483.23.483.51s-.23.485-.484.485c-.281 0-.509-.205-.509-.484 0-.28.228-.51.51-.51M48.213 15.941c.28 0 .509.23.509.51s-.229.485-.51.485c-.279 0-.51-.205-.51-.484 0-.28.231-.51.51-.51" fill="#D91D4B"/><path fill="#FFF" d="M23.935 69.283l1.323-1.406.861.516-1.25 1.516-.934-.626M25.475 70.18L26.8 68.77l.861.517-1.252 1.514-.934-.622M56.251 71.227l-.586-1.84.87-.5.716 1.826-1 .514M57.784 70.315l-.59-1.842.872-.5.716 1.826-.998.516"/><path fill="#005093" d="M3.879 39.426l1.814.118.001-.017-1.714-1.653.067-1.026 1.808 1.897 2.445-1.73-.071 1.092-2.214 1.44-.001.019 2.112.137-.057.862-4.247-.277.057-.862M6.982 32.54c1.515.29 1.943 1.424 1.745 2.458-.197 1.033-1.01 1.929-2.528 1.64-1.516-.288-1.943-1.422-1.747-2.455.196-1.034 1.012-1.93 2.53-1.643zm-.611 3.203c1.414.269 1.7-.543 1.76-.86.06-.315.095-1.176-1.321-1.445-1.416-.27-1.7.541-1.76.858-.06.316-.095 1.176 1.32 1.447zM5.405 30.46l1.63.534.538-1.641-1.63-.534.268-.82 4.046 1.324-.27.82-1.75-.573-.537 1.64 1.75.575-.268.82-4.044-1.324.267-.82M9.833 28.362c-.474-.703-1.009-1.05-1.713-1.382l-1.23-.58 1.182-2.507 3.166 1.493.207-.44 1.49.705-.362.769-.808-.382-1.093 2.316.809.38-.364.77-1.49-.703.206-.44zM7.92 25.979l.55.26c.758.357 1.294.664 1.747 1.309l.653-1.38-2.485-1.173-.465.984zM9.117 22.084l1.845 1.176.863.572.008-.016-.358-.59-1.393-2.654.556-.87 3.588 2.288-.464.727-1.852-1.18-.856-.569-.01.016.387.593 1.366 2.652-.556.87-3.588-2.287.464-.728M13.117 16.588l.587.474-.773.956 2.725 2.198-.542.673-2.723-2.2-.772.956-.589-.473 2.087-2.584M15.302 14.331l.54.527-1.17 1.201.69.67 1.063-1.093.501.487-1.064 1.093.781.76 1.17-1.202.54.525-1.772 1.821-3.052-2.967 1.773-1.822M16.855 12.957c1.176-1.002 1.935-.251 2.109-.048.363.425.562 1.261-.265 1.967l-.422.359 1.04 1.217-.66.56-2.758-3.24.956-.815zm1.291 1.512c.397-.339.317-.742.108-.987-.229-.268-.586-.34-.965-.017l-.3.257.854 1.004.303-.257zM23.666 13.018c-.24.32-.522.581-.804.775-.87.601-2.162.76-3.041-.515-.834-1.206-.401-2.398.7-3.158.276-.19.535-.317.86-.414l.384.621a2.263 2.263 0 0 0-.786.35c-.785.542-.91 1.357-.415 2.073.583.846 1.392.797 2.023.363.31-.215.503-.459.624-.66l.455.565M22.774 8.798l.864 1.6.016-.008.49-2.33.903-.488-.645 2.538 2.762 1.155-.963.52-2.395-1.112-.016.009 1.004 1.861-.759.41-2.02-3.745.76-.41M30.253 7.77c.561 1.44-.172 2.404-1.153 2.785-.98.384-2.172.169-2.734-1.27-.56-1.438.174-2.402 1.155-2.785.98-.382 2.171-.168 2.732 1.27zm-3.035 1.184c.522 1.343 1.362 1.153 1.662 1.035.3-.116 1.046-.544.524-1.886-.523-1.342-1.363-1.153-1.663-1.036-.3.117-1.046.545-.523 1.887zM32.753 4.922l.195.729-1.622.43.246.929 1.474-.392.18.676-1.475.39.279 1.053 1.622-.43.193.728-2.457.651-1.09-4.112 2.455-.652M51.326 5.481L50.32 9.617l-.839-.204.84-3.456-1.636-.397-.84 3.455-.839-.204 1.005-4.135 3.315.805M53.45 6.215c1.453.528 1.175 1.559 1.083 1.811-.19.525-.819 1.113-1.842.741l-.517-.189-.548 1.503-.812-.295 1.453-4 1.183.43zm-.678 1.869c.49.18.802-.09.912-.392.121-.332.006-.677-.461-.847l-.372-.135-.45 1.24.37.134zM58.4 10.785c-.693 1.38-1.9 1.484-2.84 1.012s-1.581-1.5-.889-2.88 1.899-1.483 2.839-1.012c.94.472 1.58 1.5.89 2.88zm-2.913-1.46c-.647 1.288.058 1.784.345 1.928.289.144 1.108.412 1.751-.877.647-1.287-.058-1.782-.345-1.927-.289-.145-1.106-.412-1.751.876zM60.838 9.836l-1.225 1.813-.595.846.015.01.599-.343 2.692-1.322.857.58-2.383 3.525-.717-.483 1.23-1.819.59-.84-.015-.01-.602.37-2.687 1.294-.857-.579 2.384-3.525.714.483M63.3 13.704l.393.337c.333.285.655.281.873.027.15-.176.199-.477-.202-.821a2.183 2.183 0 0 0-.894-.46l.402-.6c.414.17.71.328 1.085.647.744.637.807 1.283.404 1.754-.285.334-.717.483-1.16.271l-.012.015c.296.356.375.871-.088 1.412-.645.753-1.59.184-2.085-.237-.378-.325-.543-.619-.777-1.01l.52-.506c.275.57.55.846.68.956.5.427.86.286 1.005.115.42-.49-.08-.925-.206-1.03l-.392-.336.454-.534M67.734 15.521c.572.598.737 1.256.216 1.752-.462.439-.91.33-1.185.173l-.009.008c.316.455.267.979-.12 1.348-.382.364-1.08.6-2.02-.385l-.926-.973 3.08-2.935.964 1.012zm-2.965 2.087l.331.347c.374.392.735.35.957.14.219-.21.317-.53-.094-.962l-.331-.347-.863.822zm1.347-1.283l.29.303c.386.405.703.245.84.115.088-.084.362-.387-.1-.871l-.263-.277-.767.73zM70.195 21.9c-1.238.926-2.363.477-2.992-.364-.632-.842-.747-2.047.491-2.974 1.236-.926 2.362-.478 2.991.365.631.841.745 2.046-.49 2.973zm-1.955-2.608c-1.154.863-.744 1.622-.551 1.88.193.258.805.861 1.957-.002 1.155-.864.747-1.622.553-1.88-.193-.258-.806-.862-1.959.002zM69.416 23.266c.847.017 1.44-.22 2.117-.602l1.185-.67 1.365 2.414-3.051 1.722.24.424-1.435.81-.418-.742.779-.439-1.26-2.229-.779.44-.416-.74 1.433-.812.24.424zm3.049-.187l-.529.299c-.73.413-1.29.673-2.078.671l.75 1.329L73 24.028l-.536-.949zM72.02 29.993a3.462 3.462 0 0 1-.592-.944c-.41-.975-.302-2.273 1.128-2.874 1.35-.566 2.428.102 2.947 1.336.13.308.2.587.229.926l-.687.248a2.299 2.299 0 0 0-.18-.84c-.37-.88-1.145-1.17-1.945-.833-.948.397-1.066 1.199-.77 1.905.146.347.345.587.517.745l-.647.33M76.937 31.998l-.72.22-.357-1.176-3.35 1.017-.251-.827 3.35-1.015-.356-1.176.72-.219.964 3.176M77.346 33.987c.16.812-.057 1.455-.762 1.591-.625.123-.944-.211-1.091-.493l-.013.003c.023.553-.3.969-.826 1.071-.519.101-1.234-.077-1.494-1.413l-.257-1.32 4.179-.81.264 1.371zm-3.622.16l.093.471c.102.532.43.69.729.633.297-.058.553-.275.44-.86l-.092-.471-1.17.227zm1.827-.355l.08.412c.106.548.46.586.645.55.12-.024.513-.131.385-.788l-.072-.376-1.038.202zM75.97 40.688c-1.54.11-2.243-.875-2.32-1.924-.073-1.05.483-2.125 2.023-2.236 1.54-.11 2.245.875 2.32 1.925.075 1.048-.482 2.125-2.023 2.235zm-.233-3.25c-1.437.103-1.503.96-1.478 1.282.02.322.209 1.161 1.646 1.058 1.437-.103 1.504-.961 1.48-1.283-.022-.321-.21-1.16-1.648-1.058z"/><path d="M30.353 77.377c-.367.05-.835.037-1.42-.174-1.588-.575-2.347-2.008-1.782-3.57.638-1.768 2.385-2.06 3.625-1.612.397.144.91.44 1.204.854l-.618 1.709a1.5 1.5 0 0 0-.893-.907c-.871-.316-1.314.234-1.476.68-.266.731.226 1.183.728 1.365.432.156.878.098 1.248-.05l-.616 1.705M33.65 73.044l3.575.634-.263 1.481-1.532-.271-.077.43 1.379.245-.217 1.225-1.38-.244-.088.489 1.534.271-.263 1.483-3.576-.636.908-5.107M41.821 73.84c1.49-.008 1.65.909 1.653 1.311.003.583-.47.958-.898 1.086v.014c.673.113 1.16.616 1.16 1.32.005.525-.302 1.448-1.746 1.455l-3.069.017-.027-5.188 2.927-.015zm-.648 1.973c.362-.001.457-.186.456-.364 0-.177-.098-.364-.46-.36h-.193l.003.726.194-.002zm.068 1.973c.193-.003.52-.034.517-.396-.001-.349-.321-.384-.52-.383l-.253.002.004.777h.252zM45.273 73.61l3.57-.667.276 1.48-1.53.286.08.429 1.378-.257.228 1.225-1.378.256.093.489 1.528-.286.278 1.48-3.57.665-.953-5.1M50.472 72.52l2.525-.967c1.544-.59 2.305.238 2.57.928.267.7.247 1.827-1.29 2.415l-.59.225.574 1.5-1.937.744-1.852-4.845zm2.735 1.34l.214-.08c.388-.149.38-.4.305-.594-.148-.388-.46-.291-.62-.23l-.215.082.316.822zM18.183 54.891l-.023.078s.007 0 .023-.078zm17.32-19.588c.127-.102.306-.306.433-.458.128-.153.204-.306.153-.332-.05-.025-.102-.025-.153-.05-.15 0-.306.05-.432.152-.28.23-.432.611-.23.765.052.025.127 0 .23-.077zm2.674 8.941v-.006l-.008.003c.004.003.008.003.008.003zm-1.2 9.094c0-.044-.003-.092-.01-.141a.305.305 0 0 0 .01.14zm6.778-23.028s-.128.051-.28.153c-.408.178-1.145.483-1.529.662-.1.051-.227.128-.381.178-.584.306-1.325.766-1.426.919-.026.024-.077.05-.128.075-.1.052-.28.077-.46.077-.176.025-.38.05-.482.101 0 0-.051.026-.076.052-.127.076-.356.229-.636.407-.18.128-.382.28-.586.432-.305.23-.611.485-.765.664-.05.05-.1.101-.178.203-.03.035-.06.074-.092.114h-.001c-.082.103-.18.225-.289.37-.152.178-.331.408-.51.637a7.47 7.47 0 0 1-.432.535c-.204.23-.382.458-.586.662-.179.204-.357.408-.534.587a4.764 4.764 0 0 1-.56.508 1.022 1.022 0 0 1-.282.154c-.687.127-.584 1.656-1.248 1.936h-.024c-.688.255-1.757-.305-2.013.076-.047.067-.087.129-.114.19v.003c-.124.263-.064.509.269 1.005.336.515-.354.991-.455 1.133.013.031.013.05-.006.038-.01-.006-.008-.02.006-.038-.043-.105-.224-.354-.36-.14-.18.306-.46.663-.486.484-.025-.178-.355.281-.355.128 0-.154.228-.535 0-.434-.229.128-.459.688-.536.866-.102.179-.406.28-.38-.076.023-.356-.638.56-.996.738-.13.072-.47.28-.867.53h-.003c-.294.188-.62.396-.912.591-.305.204-.586.409-.764.537-.024.024-.05.024-.077.05a2.573 2.573 0 0 1-.254.202c-.203.18-.458.383-.763.638-.104.076-.203.178-.306.255-.153.128-.28.23-.432.357-.154.126-.281.254-.435.382l-.432.356a5.452 5.452 0 0 1-.188.177v.002c-.086.08-.17.154-.246.23-.177.15-.33.304-.457.432a1.904 1.904 0 0 0-.23.28c-.179.203-.383.509-.637.892-.306.483-.64 1.077-.919 1.7-.32.723-.568 1.488-.608 2.172-.064.922-.107 1.27-.131 1.399l.259-.94.533 2.14-.127-2.778.458 2.14c.18.128.051-1.095-.1-2.24-.127-.817-.18-1.71-.027-1.71.332.053.178 1.402.356 2.524.077.458.179 1.3.306 2.164.043.265.09.529.139.788.186.967.416 1.836.677 2.118.025.025.05.025.05.05.332.28.153-.484 0-1.044-.076-.306-.153-.56-.153-.56s-.168-.438-.094-.56v-.004c.017-.026.048-.037.094-.023.007 0 .016.009.024.018v.005c.029.031.073.11.13.207.128.281.28.714.457 1.172.154.433.306.892.434 1.198.102.229.179.38.203.38.18 0-.356-1.628.077-1.246.05.05.102.1.152.178.205.331.331.789.435 1.17.05.23.125.41.177.51.23.357.203 0 .255-.024v-.026c-.052-.179-.307-1.019-.432-1.555-.053-.203-.077-.355-.053-.381 0-.027.026-.027.053 0 .075.051.229.229.432.458.103.128.202.256.306.384.33.38.637.736.737.685.178-.152-.432-1.146-.076-1.349.05-.024.076-.024.102-.024.128.024.23.179.331.38.23.383.46.916.714.916h.05c.332-.101.128-1.578.714-1.221.634.382-.255 1.528.151 2.114.41.61.587 1.07.765 1.731.968 0 2.725 0 3.643-.253.815-.227 1.298-.662 1.96-1.07a.805.805 0 0 0 .204-.101s.56.38.915.203c.18-.075.307 0 .41.077.151.127.278.254.432.204.305-.103-.178-.56-.101-.791.05-.051.126-.077.229-.077.228-.024.483.026.459-.1 0-.102-.154-.384-.46-.612-.127-.104-.33-.18-.56-.205a.758.758 0 0 0-.33 0 10.69 10.69 0 0 1-1.199.077c-.355 0-.61.024-.763.05-.306.102-1.452.766-1.63.434-.178-.332 0-1.529.23-1.681.204-.152.56-1.07.406-1.555-.152-.456.333-.229.357.28.023.46.253-.074.298-.537.006-.052.009-.101.009-.151 0-.484 0-1.832-.256-2.062-.228-.23-.586-1.58-.586-1.58l.383.026v-1.07s.178-.358.28-.128c.077.256.077 1.427.077 1.427s.28-1.452.459-1.478c.176-.026 0 2.115 0 2.115l.43-.713s-.177.662-.024.662c.128 0 .28-.23.33-.254.027 0 .027 0 .027.024 0 .027 0 .077-.027.104-.024.152-.074.407 0 .535.027.024.053.05.077.05.23.127.56-1.503.663-1.606.128-.102.33.561.33.561s.331-.687.23-1.504a3.696 3.696 0 0 0-.114-.617c-.167-.62-.464-1.184-.676-1.472-.305-.407-.305-.865-.457-.687 0 0-.026.026-.053.05-.126.129-.229.18-.229.053 0-.106.036-.91.019-1.48-.009-.254-.03-.462-.069-.533-.102-.256-.305-.382-.28-.663.024-.228.357.28.56.587.103.128.153.202.153.202v.74l.51.406.038-.739.012-.227s.07.089.152.227v.003c.147.253.337.677.254 1.07-.1.584-.355.432-.15.737.228.306.33-.128.457.28a.425.425 0 0 0 .102.18c.178.152.458.152.407.482-.024.154.051.205.154.23.204.076.459.102.459.537l.003.017c.024.143.05.239.072.287.154.153.408-.127.535.33 0 .052.025.102.05.128.103.255.282.46.433.612.153.152.307.28.281.408-.025.28 0 .56.23.51a.609.609 0 0 1 .381.05c.077.05.101.101.128.204.076.204.254.33.304.178.052-.153-.025-.484-.177-.535-.052-.027-.09-.088-.106-.154-.002.123-.03.215-.099.205-.024 0-.024 0-.05-.025-.177-.101-.153-.69-.05-.764.025-.026.05-.026.05 0 .063.062.12.26.14.443.014-.064.058-.103.14-.061.204.076.46.661.409.992 0 .128.1.153.254.128.178-.025.406-.102.586-.102.1-.026.152 0 .203.052.102.075.23.23.433.407.153.153.357.33.559.458.154.076.307.152.46.18a.888.888 0 0 0 .254.024c.662-.052.739.051.892-.052.151-.126-.305-.254-.076-.355.178-.127.305-.077.483.128.026 0 .026.025.05.05.204.229.153.05.28.025.154-.024-.28-.305-.127-.407.128-.077.357.204.485.127.154-.05-.204-.483.051-.535.229-.05.357.357.458.204.128-.152-.05-.611-.255-.611-.1 0-.508.025-.942.052-.535.05-1.172.1-1.3.126a.477.477 0 0 1-.254-.102c-.203-.101-.406-.28-.46-.305v-.128c.028-.179.054-.51 0-.916a3 3 0 0 0-.125-.792c-.036-.156-.076-.31-.118-.464h-.002c-.105-.376-.222-.714-.313-.986-.075-.23-.153-.409-.153-.486-.026-.101.051-.177.153-.254.127-.153.331-.33.331-.663 0-.284-.076-.767-.173-1.147a2.14 2.14 0 0 0-.158-.457c-.025-.076-.075-.102-.102-.076-.08.026-.084.286-.092.533h-.003c-.007.227-.026.437-.11.46-.097.042-.199-.202-.244-.46-.037-.205-.04-.418.016-.508.102-.204.332-.281.332-.535 0-.282.05-1.122-.128-1.324-.051-.05-.153-.205-.305-.383-.15-.249-.371-.521-.57-.796h-.002l-.014-.02c-.305-.457-.585-.864-.637-.916-.027-.076-.152-.229-.306-.382-.127-.178-.28-.381-.382-.586v-.025a.401.401 0 0 1 0-.382c.077-.128.23-.255.306-.382.025-.052.051-.077.076-.077.128.025.23.535.204.713-.05.254.203 1.02.384.994.177-.026.05-1.02.201-1.02.077 0 .128.28.154.587.05.331.077.688.128.942.067.447.23.54.27.554h.008c0-.077.01-.816.18-.962h.023c.23-.075.129.255.129.51 0 .23.177-.128.229.256.012.067.022.132.026.195l.224.001c.004-.068.005-.145.005-.222 0-.408 0-.867.103-.867.228 0 .05.842.279.739.23-.077-.178-1.961.076-2.012.051-.026.077 0 .1.05.155.306.104 1.35.36 1.275.305-.078-.231-2.32.1-2.471h.026c.331-.127.076 1.069.331.942.207-.083-.024-1.209.02-1.667v-.001c.011-.107.034-.177.083-.192.094-.032.137.058.157.193.047.298.003.812.25.725.128-.05.134-.36.112-.726-.03-.57-.128-1.276.092-1.338.34-.074.167.981.176 1.339l.002.037c.026.305-.152 1.044-.407 1.07-.23.025 0 .84-.28 1.146-.307.28-.333.662-.129.585.153-.023.714-1.144 1.12-2.088.118-.271.221-.53.3-.748.08-.213.135-.388.16-.5.128-.663-.357-2.269-.051-2.395.28-.128.229-.51.611-1.376.15-.336.381-.852.625-1.39v-.004c.09-.197.178-.397.266-.593.256-.637.485-1.248.535-1.554.128-.687.102-1.784-.255-1.885zM20.071 54.128c-.077 0-.154-.075-.23-.254-.127-.331-.255-.891-.255-1.58 0-.366-.004-.698-.004-.974 0-.548.022-.885.158-.885.05 0 .076.025.1.101.074.148.123.444.141.787.013.256.01.534-.013.794-.05.738.282 2.011.103 2.011zm.128-3.693c-.128 0-.077-.611.076-.994.101-.23.28-.56.433-.713.1-.076.179-.103.202.077 0 .178-.074.459-.202.764-.178.432-.409.866-.51.866zm.509.714c-.022.053-.045.109-.066.167v.004c-.136.347-.28.719-.367.568-.057-.069-.02-.292.058-.568.099-.356.26-.79.375-1.09 0-.024 0-.024.025-.024.177-.51.357-.969.432-.816v.254a8.58 8.58 0 0 1-.406 1.378c-.026.05-.026.075-.051.127zm.942-1.453c-.025.026-.025.076-.051.101-.153.384-.33.919-.434.766v-.027c-.024-.05-.024-.126 0-.228.053-.383.28-1.02.434-1.427 0 0 0-.025.026-.025.153-.459.33-.892.406-.84.027.023.027.05.027.101 0 .05 0 .153-.027.28-.075.408-.279.993-.381 1.299zm1.165-1.917c-.094.345-.224.717-.3.925-.025.024-.025.076-.049.101-.154.407-.333.917-.435.764-.024-.051-.024-.179 0-.332.077-.38.281-.967.435-1.35v-.026l.03-.077c.168-.405.331-.788.402-.763 0 .026.026.05.026.102 0 .077 0 .18-.026.306a5.1 5.1 0 0 1-.083.35zm.473.004l-.084.206c-.077.204-.178.357-.255.408-.025.026-.05.026-.05.026-.053 0-.053-.128 0-.281a4.88 4.88 0 0 1 .104-.358l.097-.279c.027-.076.078-.178.104-.254.177-.41.33-.74.356-.485 0 .172-.126.63-.272 1.017zm.68-.507c-.076.205-.18.357-.23.407-.229.153-.024-.483.127-.89.05-.078.076-.178.102-.257.152-.38.307-.661.331-.558.026.024.026.05.026.077 0 .025 0 .1-.026.177-.024.255-.179.713-.33 1.044zm1.094-1.221c-.101.125-.178.252-.204.355-.152.382-.406 1.248-.534 1.07 0 0 0-.026-.026-.026v-.23c.077-.382.306-1.044.46-1.45.074-.155.177-.306.304-.485.307-.408.714-.738.739-.536.025.231-.458.841-.74 1.302zm7.232.814v-.027c-.305-.432-.763-.738-.635-.917.152-.178.28.18.509.382.052.053.102.103.126.152.179.205.333.536.408.716.102.228-.101.128-.408-.306zm.128-.612c-.051-.051-.075-.101-.128-.153-.279-.357-.635-.611-.508-.765.153-.202.28.18.508.383.256.203.46.638.536.866.076.229-.128.103-.408-.33zm1.451 3.515c-.024 0-.024 0-.05-.025-.179-.153-.153-1.122-.05-1.248.025-.026.05-.026.05.024.127.205.23 1.3.05 1.25zm.562.536c-.026 0-.026 0-.051-.026-.154-.153-.154-1.121-.051-1.248.025-.026.05-.026.05.025.129.205.23 1.326.052 1.249zm3.922-4.917c.203-.024.28 1.401.05 1.375 0 0-.027-.025-.05-.025-.18-.205-.306-1.273 0-1.35zm-.23-9.579c.153.204-.025.943-.356 1.122a.274.274 0 0 1-.282.025c-.303-.153 0-.79.282-1.07.128-.127.28-.179.357-.077zM34.97 50.97s-.026 0-.052-.026c-.253-.153-.229-1.12-.075-1.248.024-.025.051-.025.075 0 .18.204.331 1.326.052 1.274zm1.017 1.426h-.051c-.137-.137-.152-.744-.106-1.074l-.204-.002c.004.237-.02.422-.097.389h-.025c-.061-.06-.1-.21-.123-.389-.04-.34-.012-.785.072-.885 0-.025.025 0 .05.025.06.118.119.537.123.858l.204.002a.48.48 0 0 1 .056-.198c.026-.025.026-.025.05.027a.566.566 0 0 1 .061.171c.094.373.14 1.14-.01 1.076zm.46-.204c.126.128.228.816.026.79l-.027-.024c-.177-.103-.152-.688-.051-.791.026 0 .026 0 .051.025zm2.24-15.411c-.05.203-.151.433-.33.61-.127.18-.332.307-.586.383a1.83 1.83 0 0 1-.893-.05c-.1.177.078.56-.05.865v.026c-.05.102-.228-.076-.28.025-.025.077.076.407.025.485-.024.05-.076.05-.127.024-.051-.024-.1-.049-.127 0-.076.078.05.307 0 .434-.025.102-.102.05-.179.127-.069.047-.14.224-.17.295-.003.002-.006.008-.007.011l-.027.026c-.05.06-.091.021-.132-.037-.063-.089-.12-.224-.198-.117a.26.26 0 0 0-.037.117v.002c-.01.265.387.583.343.67-.026.18-.23.078-.23.205-.025.154.154.332.254.459.078.051.128.102.103.102-.025.025-.052.025-.103.025a.55.55 0 0 1-.432-.127c-.28-.204-.46-.586-.586-.943a3.417 3.417 0 0 1-.068-.393v-.001c-.016-.148-.01-.262.017-.32 0 0 .027 0 .051.026.076.05.23.102.28.05.102-.075.051-.38.154-.405.05-.052.1.05.152.076 0 .025.025 0 .051-.052.102-.152-.051-.867.05-1.045.076-.1.231-.1.33-.152.028-.026.08-.05.104-.076.076-.128.076-.51.178-.612.077-.076.152-.05.23-.076.026 0 .05-.027.076-.076.101-.154.026-.486.05-.689.027-.178.128-.357.255-.535.306-.382.74-.663.79-.535.05.205-1.018.867-.586 1.504.178.28.485.356.74.228.279-.101.508-.406.585-.79.023-.05.023-.075.023-.126.028-.18.358.204.306.382zm.306.79c-.051.075-.102.101-.127.101-.18-.05-.076-.713.127-.993.051-.076.103-.128.178-.102.102 0-.025.738-.178.994zm.559-.153c-.05.101-.126.153-.177.128-.151-.052 0-.74.177-.995.078-.076.128-.127.179-.101.205.025.026.688-.18.968zm.312-3.071h-.192c-.006-.004-.012-.007-.017-.012-.177-.152.05-.765.356-.89.102-.052.23-.052.306.025.255.152-.024.585-.306.79a.636.636 0 0 1-.147.087zm1.371 2.154h-.077a.218.218 0 0 1-.254.254c-.128 0-.23-.05-.282-.127-.025.178-.126.383-.254.33-.024 0-.051-.024-.075-.075-.053.23-.154.432-.256.408 0-.027-.026-.027-.026-.027-.1-.05-.075-.408 0-.661.077-.179.154-.307.255-.28.027 0 .05.024.078.076.024-.052.1-.076.152-.076.05.024.1.05.1.101.052-.077.13-.153.257-.153.075 0 .128.025.177.052-.025-.128 0-.255.128-.281.23-.076.279.357.077.459zm.38 2.827c-.024 0-.024-.025-.05-.05-.152-.204-.23-1.35 0-1.452.178-.026.23 1.529.05 1.502zm-.05-5.935c-.052.077-.128.126-.152.152 0 .23-.104.408-.178.433-.307.027-.358-.892-.104-.993.027-.026.104-.051.178.025.051-.127.155-.179.256-.305h.026c.255-.28.51-.636.662-.51.102.076-.357.815-.688 1.198zm2.24-2.14c-.024.075-.178.025-.33-.051-.177-.077-.358-.204-.408-.28-.076-.077.178-.23.408-.331.127-.052.256-.077.306-.052.102.102.102.459.024.714zm-4.914 13.45c.06-.02.09-.211.097-.462l-.224-.003c.025.29-.02.507.127.465z" fill="#FFF"/><path d="M59.8 28.145c.025.024.05.024.102.024.254-.05.254-.84-.102-1.069a.286.286 0 0 0-.205-.076c-.15 0-.024.968.205 1.12zm5.067 25.628l.011-.042c-.012.039-.011.042-.011.042zm-11.18-8.332c-.062.108-.11.214-.169.306-.012.018-.021.035-.033.052-.078.126-.153.229-.204.33.05-.074.126-.151.204-.23.039-.038.093-.094.14-.152h.001l.037-.051c-.051 0-.051-.05-.027-.127.027-.05.027-.076.051-.128zM65.76 47.15c-.059-.311-.224-.825-.436-1.402v-.004a72.358 72.358 0 0 0-1.321-3.282 1.96 1.96 0 0 1-.134-.25c-.024-.05-.047-.102-.07-.158-.153-.28-.306-.585-.483-.916-.129-.229-.256-.46-.384-.662l-.076-.153c-.1-.178-.178-.306-.255-.434-.051-.076-.1-.127-.126-.178-.23-.33-.331-.764-.51-1.095-.026-.05-.05-.103-.077-.127-.14-.212-.216-.186-.486-.517v-.004c-.023-.025-.047-.056-.074-.091a1.638 1.638 0 0 1-.153-.305 5.26 5.26 0 0 1-.128-.662c-.076-.332-.102-.613-.102-.613-.201-.33-.432-1.095-.763-1.579a.574.574 0 0 0-.127-.204.341.341 0 0 0-.078-.083c-.04-.029-.075-.027-.103-.002h-.003a.279.279 0 0 0-.071.111c-.077.23-.077.662-.205.306-.056-.163-.11-.296-.158-.42h-.003a2.39 2.39 0 0 1-.194-1.109c0-.789.433.254.355-.56-.019-.305-.057-1.043-.105-1.862-.079-1.301-.18-2.809-.276-3.106-.256-.84-.279-1.223-.331-1.478-.152-.637-1.756-2.7-1.883-2.878-.028-.051-.128-.077-.257-.077-.254 0-.558.077-.585-.077 0-.05-.026-.076-.05-.152-.153-.357-.739-1.172-1.07-1.604-.23-.306-.663-.79-.916-1.097-.127-.152-.232-.254-.232-.254-.128-.051-.278.025-.405.178-.204.255-.41.663-.535 1.045-.052.128.407 1.808.126 2.14-.126.152-.305-.102-.456-.382-.18-.307-.358-.611-.41-.383-.152.536.128 1.427.101 1.962-.024.178-.15.433-.305.663-.024.025-.05.075-.075.102-.052.102-.153.203-.23.33-.28.383-.56.714-.534.866.05.205.33-.152.534-.28.077-.026.154-.05.204.026.05.127-.05.254-.204.381-.23.18-.56.357-.56.46-.052.993-.407 2.802-.152 2.65.356-.255.407-.612.687-.536l.025.025c.305.102-.128.204.077.433.077.051.026.102-.077.154-.254.152-.84.305-.712.483.178.23.304-.127.56.128.057.062.039.16-.022.278-.21.398-.92 1.021-.743 1.2.23.203.205.152.178.56-.025.128-.357.536-.686 1.07-.13.226-.27.464-.394.705h-.001a4.787 4.787 0 0 0-.192.416c-.33.917-.484 1.223-.789 2.011-.051.155-.101.332-.178.51-.026.103.05 0 .178-.128.204-.203.509-.533.611-.457.204.102-.256.534-.128.688.128.127.153-.434.382-.306.151.066-.146.493-.32.804-.092.162-.147.29-.086.317.087.044.223-.161.352-.317.098-.118.192-.207.26-.141.032.028.033.077.013.141v.001c-.086.28-.575.827-.575 1.055 0 .305.638-.841.815-.74.025.026.025.026.052.051v.078c-.027.203-.306.585-.18.688.052.025.103 0 .18-.053.205-.142.493-.585.663-.697.016-.01.014-.042.002-.055-.055-.053-.098-.129-.055-.215.032-.094.088-.102.153-.11v-.003c.097-.006.213-.013.306-.27.153-.406-.535.179-.432-.178.024-.128.126-.153.508-.535.05-.025.152-.152.28-.331.05-.102.127-.178.178-.28.052-.05-.051-.077-.178-.077-.128-.025-.254-.025-.203-.126.075-.077.127-.128.203-.154.077-.05.178-.076.23-.127.025 0 .05-.026.075-.05.052-.027.102-.103.128-.204.027-.052.255-.281.486-.434.2-.127.406-.228.43-.076.026.178-.126.408-.075.51.051.254.56-.102.432.127-.126.23-.688.534-.688.763 0 .256.23-.254.307.103.077.306-.255.153-.406.33-.027.026-.027.053-.053.103-.102.305.18.305-.178.689-.064.061-.134.135-.217.214h-.003c-.05.047-.105.094-.163.142-.024 0-.05.025-.075.05-.052.051-.153.102-.23.178-.432.332-.943.74-1.425 1.199-.587.56-1.096 1.197-1.35 1.91 0 .025 0 .025-.026.05a8.38 8.38 0 0 1-.285.715c-.698 1.534-1.607 2.192-2.007 2.929-.088.144-.207.357-.348.609h-.002c-.642 1.144-1.704 3.075-1.892 3.034-.228-.076-.968 0-1.145.076-.14.08-.45.267-.532.427v.006c-.021.044-.025.089-.003.127.102.153.23-.179.46-.076.227.076-.333.484-.18.56.127.076.56-.382.689-.28.15.127-.23.356-.103.381.152.052.28-.101.434-.126.177-.051.201.101.406.254.205.128.026.102.205.256.15.151.456.05.61.025.05-.025.153-.256.255-.332.127-.077.255.204.458.025.204-.203.434-.407.613-.56.151-.127.075.254.227.101.093-.091.158-.23.223-.361v-.004c.062-.126.126-.248.21-.322.103-.076.23.05.332-.026.228-.151.304-.408.535-.508.102-.026.38.076.483.025.179-.102.28-.204.357-.306.077-.052.128-.103.229-.127.332-.103.814.178.892 0 .101-.254.178-.433.255-.586.33-.814.355-.688.61-.738.203-.027-.102.814.027.585.176-.255.534-1.019.788-1.477.008-.016.016-.03.023-.05l.001.002c.093-.179.182-.311.206-.334H52.006c.128.024.177.05.204.177.012.023.003.073-.022.149-.033.095-.096.23-.182.386-.024.051-.05.077-.075.128-.052.127-.127.28-.23.434-.128.23-.28.458-.432.686-.206.306-.587.205-.587.306-.026.382.381.205.28.637-.1.408-.025.51.101.561.18.076.486-.408.46-.332 0 .051-.052.586.102.485.025 0 .05-.026.076-.05a1.03 1.03 0 0 0 .23-.256.319.319 0 0 0 .075-.103c.102-.126.204-.305.332-.483a1.44 1.44 0 0 1 .282-.28c.228-.204.533-.459.865-.713.228-.154.457-.332.637-.434.178-.1.277-.152.356-.152.05 0-.103.203-.356.458-.18.204-.409.433-.637.662-.307.28-.614.587-.865.816-.333.33-.587.56-.587.56.229-.051.406-.128.587-.23.278-.152.507-.381.865-.739.127-.126.255-.28.405-.432 0 0 .105-.128.232-.255.228-.254.508-.509.356 0-.05.204-.178.408-.356.586-.18.23-.409.408-.637.611-.332.256-.665.485-.865.637v.027a.157.157 0 0 0-.028.019h-.002c-.152.105-.367.299-.584.49-.024.024-.05.05-.075.05l-.23.23c-.356.332-.638.61-.432.585.101-.025.255-.126.432-.28.077-.05.154-.1.23-.177.025 0 .05-.027.075-.027.204-.178.41-.33.614-.483.182-.155.352-.29.49-.388h.006c.199-.146.32-.201.291-.096l-.018.092.096.004h-.096c-.066.314-.113.344-.44.718a1.24 1.24 0 0 1-.33.307c-.204.152-.409.28-.613.433-.024.025-.05.05-.075.05l-.23.23-.076.076c-.178.256-.917 1.3-1.249 2.421-.023.153-.075.33-.1.483a4.97 4.97 0 0 0-.143.937c-.01.303.032.503.143.49.048-.022.1-.223.156-.487.144-.714.29-1.874.326-1.168.022.39.05.797.076 1.168.043.526.096.977.155 1.202.037.13.032-.565.068-1.202a6.73 6.73 0 0 1 .059-.609c.026-.355.203-.33.229-.23.06.271.108.554.153.834.067.438.125.864.203 1.207.05.15.077.279.127.405.128.28-.101-1.782.051-1.501.026.05.052.1.052.126.025.077.05.128.075.204.102.383.102.814.41 1.096.049.051.126.102.204.153.228.178.533.306.865.407.202.076.405.128.637.179.79.176 1.577.255 1.986.457.203.077.306.178.306.333 0 .074-.128.128-.306.153-.41.1-1.224.125-1.986.177-.232 0-.435.026-.637.026-.332.025-.637.05-.865.102-.053 0-.104 0-.155.026-.154.025-.304.025-.46.025-.023.024-.05.024-.074.024h-.23c-.534-.024-1.019-.1-1.096 0-.1.155-.304.256-.33.485v.077c-.076.203-.332.459-.127.662.051.026.076.051.128.026.228 0 .534-.485.738-.23.102.153.407.306.687.433.077.05.154.077.23.1.025 0 .05.028.075.028l.383.126c.076.102.127.128.23.128.201 0 .534-.179.866-.305.178-.077.356-.154.56-.154h.077c.534.053 1.093.688 1.477.637.33-.05 0-.661.28-.712.076-.026.152.05.23.152.125.179.228.382.278.356.127-.076-.279-.56-.025-.636.255-.051.28.077.381.179.026.024.051.05.077.077.357.253.74.125.79.125.56-.024-.076-.61.306-.356.331.204.661.407.915.535.434.256-.151-.992 0-.917.255-.229.764.46.688.255-.305-.79-1.12-1.172-.636-1.834.357-.484.153-.026.561-.229.127-.076.229-.204.356-.408.127-.18.255-.432.382-.637.229-.382.458-.688.712-.765.051 0 .102-.024.153-.024.28-.025.026.23.128.33.025 0 .05.025.078.025.1.027.356-.304.635-.687.097-.15.2-.297.306-.433v-.003c.144-.188.288-.351.407-.456.101-.101.178-.127.255-.127l.025.026c.026.025.051.052.051.076.026.052.026.127 0 .204 0 .077-.05.152-.076.229a4.858 4.858 0 0 0-.027.046h-.002c-.07.112-.159.22-.226.311-.126.153-.229.254-.229.254s-.636 1.148-.102.535c.127-.128.23-.254.331-.382.077-.101.178-.204.255-.306.025-.05.051-.076.076-.128.077-.097.143-.19.2-.282.078-.125.137-.247.184-.379a.981.981 0 0 0 .049-.46c-.049-.431.05-.431.281-.457l.152-.179 1.248-1.503-1.248 2.14-.152.255.152-.152 1.325-1.478-.245 1.003c.029-.094.138-.393.55-1.361.389-.844.512-2.02.512-3.081v-.006c0-.884-.088-1.683-.18-2.134zm-16.656.154l-.204.202c-.23.203-.432.33-.51.256-.204-.179.178-.434.51-.766.026-.025.05-.025.05-.05.23-.23.356-.585.484-.535.154.05-.051.535-.33.893zm1.643-1.556a6.495 6.495 0 0 1-.471.868c-.255.38-.485.66-.637.636-.205-.051.102-.587.457-1.122.052-.074.103-.177.18-.254l.082-.128c.304-.449.604-.8.604-.636 0 .102-.084.348-.215.636zm1.259-1.096c-.024.052-.05.127-.075.18a1.426 1.426 0 0 1-.23.484c-.102.178-.23.304-.28.304-.128-.025.026-.432.152-.789.052-.127.103-.255.128-.356.05-.128.127-.23.23-.205h.025c.026 0 .026 0 .05.027.052.05.052.178 0 .355zm3.949-20.353c.05 0 .102 0 .153.025.406.154.483 1.02.152 1.275-.051.05-.102.05-.152.025-.306-.127-.538-1.274-.153-1.325zm.788 3.923h.026c.254-.102.688 1.121.331 1.401-.1.076-.228.052-.357-.025-.28-.154-.509-.612-.483-.764.077-.332.46.152.483-.026.026-.28-.203-.51 0-.586zm-3.258-7.49c.074-.203.178-.357.277-.382.079-.025.233.152.36.331.1.153.151.306.076.332 0 .025-.052.025-.076.025-.18.025-.486.051-.637 0-.051-.025-.078-.05-.078-.077.027-.076.051-.152.078-.229zm0 7.924c.151-.205.405-.486.637-.74.38-.382.762-.688.815-.56.075.127-.383.662-.815 1.095-.232.23-.486.458-.637.535-.104.077-.179.077-.179.052-.05-.052.051-.204.18-.382zm-.459 2.395a.253.253 0 0 1-.032-.156v-.002c.012-.23.229-.575.491-.837.202-.204.433-.381.61-.433 0-.052 0-.102.027-.179.024-.05.024-.1.076-.178h-.076s-.027 0-.027-.025c-.027-.026 0-.077.027-.152 0 0 0-.026.024-.051l-.024.025c-.281.255-.563.433-.613.356-.05-.101.253-.51.613-.866.33-.356.712-.663.762-.535.027.05 0 .128-.05.204.178-.128.332-.204.356-.128.025.052.025.103-.024.204.126-.05.227-.05.278.052.205.356-.66 1.171-1.094 1.35.078.152-.05.382-.228.611-.027.051-.078.077-.104.128.042.098-.026.275-.146.456v.002c-.033.05-.068.103-.11.154.156-.104.282-.154.36-.104h.024c.026.052.026.128-.024.23-.104.23-.382.536-.637.765-.281.254-.587.458-.665.381-.1-.076 0-.28.18-.508-.18.101-.306.101-.33 0-.05-.153.127-.46.356-.764zm1.478 11.165c-.034.305-.215.918-.382 1.366-.127.331-.232.612-.255.587-.154-.078.075-1.197.228-1.553 0-.026.027-.05.027-.076.043-.121.077-.237.118-.328.054-.12.121-.197.238-.182.032.007.04.077.026.186zm-1.884-9.46c.228-.28.558-.586.865-.764.304-.204.56-.279.61-.153.077.179-.254.408-.61.74-.027.025-.051.05-.104.076-.278.254-.56.51-.761.61-.128.078-.23.078-.256 0-.026-.1.075-.305.256-.508zm-.919-5.222c.103-.076.178-.127.23-.127.025.025.025.025.05.025.025.051.025.154-.05.255a1.205 1.205 0 0 1-.23.306c-.152.153-.33.229-.382.153-.101-.128.152-.459.382-.612zm0 1.53c-.203.177-.408.33-.457.254-.077-.103.126-.409.38-.637-.1.05-.203.075-.228.025-.103-.128.102-.382.305-.56.103-.077.178-.128.23-.153.025-.026.05-.026.075-.026.027 0 .027.026.052.026.026.05 0 .153-.052.255-.024.025-.05.076-.075.102 0 .025-.026.05-.076.101.05-.025.076-.05.076-.076.025 0 .05-.025.075-.025.078-.077.155-.077.177-.052.053.077-.05.255-.177.434l-.075.076a2.154 2.154 0 0 1-.23.255zm1.594 5.367c-.14.132-.42.32-.675.543-.027 0-.053.024-.078.05-.255.23-.434.407-.536.485-.024.025-.05.025-.075.025-.052.025-.076 0-.103-.051-.024-.102.027-.204.103-.306l.075-.077a4.51 4.51 0 0 1 .918-.667v-.002c.233-.127.424-.2.457-.145.018.033-.018.082-.086.145zm-.168-.477c-.173.148-.499.477-.499.477-.004 0-.007.004-.008.007-.282.28-.512.484-.536.332-.026-.075.023-.193.115-.339.066-.096.158-.207.26-.326-.084.04-.14.033-.172-.049-.05-.153.102-.357.333-.56.251-.204.61-.458.865-.587.178-.101.329-.152.356-.126.05.075-.128.255-.356.483.228-.153.433-.203.482-.075.051.126-.205.28-.482.482a1.93 1.93 0 0 0-.358.281zm.254 9.248c.026-.103.053-.23.104-.306.05-.102.1-.153.178-.153.1.026-.027.534-.178.993-.128.381-.281.739-.307.739-.102-.077.077-.969.203-1.273zm-.761.636c.074-.179.177-.256.228-.204.102.128-.028.84-.228 1.12-.053.077-.128.128-.18.128-.204 0-.025-.688.18-1.044zm2.025 1.91a9.816 9.816 0 0 1-.523.56c-.204.205-.435.408-.637.587-.358.306-.665.587-.865.74-.053.049-.104.074-.128.1-.256.154-.408.205-.486.154-.05-.027-.05-.077 0-.127l.027-.027c.128-.1.331-.305.587-.483.177-.153.355-.28.558-.434.077-.051.18-.153.307-.254.202-.203.405-.459.637-.688l.11-.126c.334-.373.612-.648.705-.51.044.074-.081.266-.292.508zm-.345-.713c.128-.128.254-.178.278-.102.052.102-.15.357-.456.687-.037.04-.074.083-.114.125-.156.17-.34.35-.523.513-.307.28-.637.56-.865.764-.128.102-.23.179-.282.204-.155.102-.254.152-.332.152-.024.026-.05.026-.075.026-.103 0-.127-.076-.026-.178.026 0 .026 0 .026-.025.025 0 .05-.025.075-.051.128-.128.358-.307.614-.485l.074-.076c-.074-.076.052-.356.256-.688-.13.102-.256.204-.33.28l-.053.052c-.305.33-.483.662-.509.56-.018-.18.13-.654.316-1.045v-.005c.078-.164.162-.315.246-.427.074-.128.15-.204.228-.204.255.026.05.256-.077.585a.087.087 0 0 0-.01.05h.002c.006.051.088.044.2 0h.005c.032-.014.07-.031.108-.05.027-.077.077-.127.128-.203.077-.154.177-.281.281-.434.304-.432.583-.763.583-.585 0 .101-.073.33-.201.585.075-.127.151-.28.255-.432.024-.076.076-.128.1-.18.307-.483.536-2.163.893-2.062.305.05-.409 1.833-.815 2.649zm1.85-2.823c-.015.024-.028.048-.042.073-.027.05-.051.101-.077.151-.229.434-.305.84-.534.79-.111-.021-.012-.556.197-1.014a1.269 1.269 0 0 1 .414-.539c.126-.05.229-.076.254-.05.094.093-.05.316-.213.589zm1.892-12.563c-.076.56-.713.866-1.299.763a1.146 1.146 0 0 1-.635-.356.968.968 0 0 1-.256-.585c-.025-.128.128-.205.256-.179.05 0 .1.026.126.076.153.281.33.458.51.51.28.102.534 0 .662-.179.281-.356.153-1.043-.23-1.68 0-.026.129-.129.025-.307-.127-.229-.304-.356-.458-.586-.1-.178-.179-.382-.179-.739-.024-.202.078-.305.18-.33.128-.052.305 0 .33 0 .434.356.485 2.037.535 2.113.23.256.485.841.433 1.479zm2.422 8.32c-.042.725-.14 1.41-.282 1.793-.077.204-.154.331-.255.331-.123 0 .087-1.261.2-2.125v-.005c.025-.2.045-.38.055-.519v-.025c.026-.23.026-.484 0-.74-.052-.764-.23-1.452-.102-1.477.05 0 .076 0 .102.025.27.224.351 1.538.282 2.741zm.152 3.347c-.154.026-.052-.663.024-1.4.058-.727.129-1.538.214-1.953.029-.138.06-.232.091-.264.051-.052.077.052.102.23v.484c-.05 1.044-.254 2.853-.431 2.903zm.56-.076c-.077.05-.129-.076-.129-.28a.726.726 0 0 1 0-.332c0-.432.078-.917.128-1.094.025-.027.025-.027.025-.051.256-.485.128 1.604-.025 1.757zm3.971 6.851c.193-.069.121.522-.024 1.189h-.002c-.065.304-.149.622-.227.902-.23.789-.79 1.579-1.096 1.707-.051.024-.1.05-.126.024-.103-.024-.026-.254.126-.56.152-.33.434-.739.612-1.044.136-.232.238-.633.33-1.025v-.006c.132-.565.244-1.126.407-1.187zm-.509-1.043c.307-.102.077.942 0 1.783-.01.143-.04.296-.084.453-.159.571-.496 1.188-.756 1.508-.152.179-.254.256-.305.23-.154-.051.076-.485.305-.968.102-.23.205-.459.28-.663a1.38 1.38 0 0 0 .037-.107c.199-.66.26-2.14.523-2.236zm-2.75-2.6c-.198.031-.242-1.18-.192-2.236.03-.702.1-1.33.192-1.481v-.026c.118-.13.18.639.19 1.507v.005c.01 1.024-.053 2.191-.19 2.231zm0-4.405c-.279-.51-.508-1.096-.483-1.198.025-.051.228.256.483.662.306.536.612 1.146.587 1.25-.078.126-.331-.256-.587-.714zm.968 7.107l-.026.026c-.178.128-.05-.74.026-1.325v-.128c.025-.27.01-.781.003-1.29l-.003.015a12.032 12.032 0 0 1-.312 1.3c-.082.276-.16.468-.223.51-.08.069-.078-.17-.047-.507.039-.414.12-.979.15-1.303.038-.46-.027-1.565.008-2.233.01-.213.03-.38.068-.465.025-.077.076-.077.101-.05.058.076.133.26.2.512v.001c.018.077.038.161.055.25.02.187.058.392.07.6a.051.051 0 0 0 .006-.015v-.026c.101-.201.28.255.384.816.049.407.1.866.074 1.197-.025.178-.051.383-.074.611-.007.034-.016.069-.022.102-.101.482-.242.987-.362 1.248a.428.428 0 0 1-.076.154zm.128 1.732c-.026.025-.026.025-.052 0v-.128c.077-.254.255-.79.384-1.223.023-.076.023-.153.049-.227.056-.308.096-.97.167-1.552v-.004c.059-.478.14-.902.266-1.019l.026-.025c.177-.07.132.45.062 1.044v.003c-.03.262-.064.54-.088.786-.026.104-.026.18-.026.256a4.81 4.81 0 0 1-.456 1.605c-.129.255-.256.433-.332.484zm.332 1.172h-.053c-.102-.027-.05-.28.053-.587.015-.06.033-.123.054-.187.11-.344.269-.731.377-1.009a.8.8 0 0 1 .051-.205c.152-.688.18-2.087.434-2.19.306-.102 0 1.274-.052 2.089-.046.428-.183.92-.346 1.317h-.002a1.08 1.08 0 0 1-.034.084c-.177.382-.382.661-.482.688zm1.298 1.808a7.471 7.471 0 0 1-.816.994c-.177.153-.305.204-.382.178-.077-.075.1-.228.382-.509.205-.23.484-.535.712-.917.333-.51.613-1.554.919-1.554.128 0-.306 1.07-.815 1.808z" fill="#FFF"/></g></svg>